<svg xmlns="http://www.w3.org/2000/svg" viewBox="0 0 509.43848 178.05078"><defs><style>.a{fill:#d0d2d3;}.b{fill:#fff;}.c{fill:#3f3f3f;}.d{fill:none;stroke:#808184;stroke-miterlimit:10;stroke-width:2px;}.e{fill:#808184;}.f{fill:#37b34a;}.g{fill:#329332;}.h{fill:#638ec1;}.i{fill:#4b6696;}</style></defs><rect class="a" x="192.5918" y="61.82117" width="2.5" height="72.06"/><path class="a" d="M238.72949,299.44531a2.103,2.103,0,0,1-2.10058,2.10059H50.73877a2.10315,2.10315,0,0,1-2.10107-2.10059V146.47314a2.10315,2.10315,0,0,1,2.10107-2.10058H236.62891a2.103,2.103,0,0,1,2.10058,2.10058v35.17115h2.5V146.47314a4.606,4.606,0,0,0-4.60058-4.60058H50.73877a4.60609,4.60609,0,0,0-4.60107,4.60058V299.44531a4.60609,4.60609,0,0,0,4.60107,4.60059H236.62891a4.606,4.606,0,0,0,4.60058-4.60059V266.24487h-2.5Z" transform="translate(-46.1377 -125.99512)"/><rect class="a" x="310.9209" y="61.82117" width="2.5" height="72.06"/><path class="a" d="M550.97559,141.87256H361.65918a4.60567,4.60567,0,0,0-4.60059,4.60058v35.17115h2.5V146.47314a2.103,2.103,0,0,1,2.10059-2.10058H550.97559a2.103,2.103,0,0,1,2.10058,2.10058V299.44531a2.103,2.103,0,0,1-2.10058,2.10059H361.65918a2.10305,2.10305,0,0,1-2.10059-2.10059V266.24487h-2.5v33.20044a4.60568,4.60568,0,0,0,4.60059,4.60059H550.97559a4.60567,4.60567,0,0,0,4.60058-4.60059V146.47314A4.60567,4.60567,0,0,0,550.97559,141.87256Z" transform="translate(-46.1377 -125.99512)"/><line class="b" x1="195.0918" y1="55.64917" x2="192.5918" y2="55.64917"/><line class="b" x1="192.5918" y1="61.82117" x2="195.0918" y2="61.82117"/><line class="b" x1="310.9209" y1="61.82117" x2="313.4209" y2="61.82117"/><line class="b" x1="313.4209" y1="55.64917" x2="310.9209" y2="55.64917"/><line class="b" x1="195.0918" y1="133.88116" x2="192.5918" y2="133.88116"/><line class="b" x1="192.5918" y1="140.24976" x2="195.0918" y2="140.24976"/><line class="b" x1="310.9209" y1="140.24976" x2="313.4209" y2="140.24976"/><line class="b" x1="313.4209" y1="133.88116" x2="310.9209" y2="133.88116"/><path class="c" d="M259.2627,251.09961h-.88086v-3.1582a2.37731,2.37731,0,0,0-.28223-1.32129,1.0689,1.0689,0,0,0-.94775-.40821,1.17291,1.17291,0,0,0-.9585.51563,1.96946,1.96946,0,0,0-.395,1.23535v3.13672h-.88086V247.834q0-1.62231-1.25146-1.62207a1.1589,1.1589,0,0,0-.95606.48633,2.00925,2.00925,0,0,0-.376,1.26465v3.13672h-.88086v-5.5h.88086v.87012h.02149a1.86826,1.86826,0,0,1,1.708-.999,1.58934,1.58934,0,0,1,1.55761,1.13868,1.96259,1.96259,0,0,1,1.82618-1.13868q1.81566,0,1.81543,2.23975Z" transform="translate(-46.1377 -125.99512)"/><path class="c" d="M263.22656,251.22852a2.55211,2.55211,0,0,1-1.94726-.77051,2.85728,2.85728,0,0,1-.72754-2.04395,2.97383,2.97383,0,0,1,.75732-2.16455,2.72327,2.72327,0,0,1,2.04639-.77881,2.4662,2.4662,0,0,1,1.91992.75733,3.00163,3.00163,0,0,1,.69043,2.10009,2.95483,2.95483,0,0,1-.74414,2.1084A2.60631,2.60631,0,0,1,263.22656,251.22852Zm.06446-5.01661a1.6758,1.6758,0,0,0-1.34278.57715,2.3718,2.3718,0,0,0-.49414,1.59278,2.24241,2.24241,0,0,0,.49951,1.5415,1.69762,1.69762,0,0,0,1.33741.564,1.612,1.612,0,0,0,1.31347-.55322,2.40339,2.40339,0,0,0,.459-1.57373,2.44494,2.44494,0,0,0-.459-1.58984A1.60388,1.60388,0,0,0,263.291,246.21191Z" transform="translate(-46.1377 -125.99512)"/><path class="c" d="M271.12207,250.84717a2.86027,2.86027,0,0,1-1.50391.38135,2.48755,2.48755,0,0,1-1.89843-.76563,2.77083,2.77083,0,0,1-.72266-1.98437,3.05113,3.05113,0,0,1,.77881-2.1836,2.725,2.725,0,0,1,2.07861-.82422,2.89059,2.89059,0,0,1,1.27832.26856v.90234a2.23887,2.23887,0,0,0-1.31054-.42969,1.76872,1.76872,0,0,0-1.38282.6045,2.28922,2.28922,0,0,0-.54,1.58691,2.18128,2.18128,0,0,0,.50782,1.52539,1.74767,1.74767,0,0,0,1.36132.55859,2.206,2.206,0,0,0,1.35352-.478Z" transform="translate(-46.1377 -125.99512)"/><path class="c" d="M277.01953,251.09961h-1.23535l-2.42773-2.64258H273.335v2.64258h-.88086V242.957h.88086v5.16162h.02149l2.30957-2.519h1.15478l-2.55127,2.65332Z" transform="translate(-46.1377 -125.99512)"/><path class="c" d="M285.62939,251.09961h-.88085V250.165h-.02149a2.03359,2.03359,0,0,1-1.89062,1.06348,2.05594,2.05594,0,0,1-1.65723-.73829,3.03348,3.03348,0,0,1-.62012-2.01171,3.295,3.295,0,0,1,.6875-2.186,2.26774,2.26774,0,0,1,1.83154-.82178,1.76354,1.76354,0,0,1,1.64893.8916h.02149V242.957h.88085Zm-.88085-2.48682v-.811a1.5747,1.5747,0,0,0-.44043-1.12793,1.47639,1.47639,0,0,0-1.11719-.46192,1.52082,1.52082,0,0,0-1.26758.59082,2.588,2.588,0,0,0-.46191,1.63282,2.32437,2.32437,0,0,0,.44336,1.501,1.44708,1.44708,0,0,0,1.18945.55078,1.50539,1.50539,0,0,0,1.19531-.53173A1.98366,1.98366,0,0,0,284.74854,248.61279Z" transform="translate(-46.1377 -125.99512)"/><path class="c" d="M291.833,248.56982h-3.8833a2.05713,2.05713,0,0,0,.49414,1.418,1.70346,1.70346,0,0,0,1.2998.49951,2.70174,2.70174,0,0,0,1.708-.6123v.82715a3.19112,3.19112,0,0,1-1.91748.52637,2.326,2.326,0,0,1-1.83154-.749,3.06935,3.06935,0,0,1-.666-2.1084,3.00739,3.00739,0,0,1,.72754-2.09179,2.334,2.334,0,0,1,1.80762-.8086,2.06847,2.06847,0,0,1,1.67041.69825,2.91,2.91,0,0,1,.59082,1.939Zm-.90235-.74658a1.79388,1.79388,0,0,0-.36767-1.187,1.25527,1.25527,0,0,0-1.00733-.42432,1.42205,1.42205,0,0,0-1.0581.4458,2.02209,2.02209,0,0,0-.53711,1.16553Z" transform="translate(-46.1377 -125.99512)"/><path class="c" d="M295.88281,243.73047a1.17376,1.17376,0,0,0-.58545-.145q-.92358,0-.92382,1.16553v.84863h1.28906v.75195h-1.28906v4.74805h-.87549v-4.74805h-.93994v-.75195h.93994v-.8916a1.8533,1.8533,0,0,1,.49951-1.36719,1.68764,1.68764,0,0,1,1.24609-.502,1.72647,1.72647,0,0,1,.63916.09668Z" transform="translate(-46.1377 -125.99512)"/><path class="c" d="M297.05908,244.20312a.55757.55757,0,0,1-.40283-.16113.54469.54469,0,0,1-.1665-.4082.56371.56371,0,0,1,.56933-.57471.5713.5713,0,0,1,.41113.16358.57462.57462,0,0,1,0,.814A.566.566,0,0,1,297.05908,244.20312Zm.42969,6.89649h-.88086v-5.5h.88086Z" transform="translate(-46.1377 -125.99512)"/><path class="c" d="M303.8374,251.09961h-.88086v-3.13672q0-1.75122-1.27832-1.751a1.3851,1.3851,0,0,0-1.09277.49707,1.83918,1.83918,0,0,0-.43262,1.25391v3.13672H299.272v-5.5h.88086v.91309h.02149a1.98509,1.98509,0,0,1,1.80468-1.042,1.68258,1.68258,0,0,1,1.38038.583,2.59392,2.59392,0,0,1,.478,1.68359Z" transform="translate(-46.1377 -125.99512)"/><path class="c" d="M305.94824,244.20312a.55757.55757,0,0,1-.40283-.16113.54469.54469,0,0,1-.1665-.4082.56371.56371,0,0,1,.56933-.57471.57133.57133,0,0,1,.41114.16358.57465.57465,0,0,1,0,.814A.566.566,0,0,1,305.94824,244.20312Zm.42969,6.89649h-.88086v-5.5h.88086Z" transform="translate(-46.1377 -125.99512)"/><path class="c" d="M310.71289,251.0459a1.6977,1.6977,0,0,1-.82227.17187q-1.44434,0-1.44433-1.61132v-3.25489H307.501v-.75195h.94531v-1.34277l.88086-.28467v1.62744h1.38574v.75195h-1.38574v3.09912a1.288,1.288,0,0,0,.1875.78955.75051.75051,0,0,0,.623.23633.92719.92719,0,0,0,.57519-.18261Z" transform="translate(-46.1377 -125.99512)"/><path class="c" d="M312.33984,244.20312a.55644.55644,0,0,1-.40234-.16113.54328.54328,0,0,1-.167-.4082.5645.5645,0,0,1,.56933-.57471.57131.57131,0,0,1,.41114.16358.57465.57465,0,0,1,0,.814A.566.566,0,0,1,312.33984,244.20312Zm.42969,6.89649h-.88086v-5.5h.88086Z" transform="translate(-46.1377 -125.99512)"/><path class="c" d="M316.85156,251.22852a2.55285,2.55285,0,0,1-1.94726-.77051,2.85941,2.85941,0,0,1-.72754-2.04395,2.97406,2.97406,0,0,1,.75781-2.16455,2.72213,2.72213,0,0,1,2.0459-.77881,2.4655,2.4655,0,0,1,1.91992.75733,2.99933,2.99933,0,0,1,.69043,2.10009,2.95483,2.95483,0,0,1-.74414,2.1084A2.60487,2.60487,0,0,1,316.85156,251.22852Zm.06446-5.01661a1.67715,1.67715,0,0,0-1.34278.57715,2.37437,2.37437,0,0,0-.49414,1.59278,2.24254,2.24254,0,0,0,.5,1.5415,1.69659,1.69659,0,0,0,1.33692.564,1.612,1.612,0,0,0,1.31347-.55322,2.40339,2.40339,0,0,0,.459-1.57373,2.44494,2.44494,0,0,0-.459-1.58984A1.60388,1.60388,0,0,0,316.916,246.21191Z" transform="translate(-46.1377 -125.99512)"/><path class="c" d="M325.56348,251.09961h-.88086v-3.13672q0-1.75122-1.27832-1.751a1.38512,1.38512,0,0,0-1.09278.49707,1.84158,1.84158,0,0,0-.43261,1.25391v3.13672h-.88086v-5.5h.88086v.91309h.02148a1.98615,1.98615,0,0,1,1.80469-1.042,1.68422,1.68422,0,0,1,1.38086.583,2.59669,2.59669,0,0,1,.47754,1.68359Z" transform="translate(-46.1377 -125.99512)"/><path class="c" d="M326.89062,250.90088v-.94531a2.60544,2.60544,0,0,0,1.584.53173q1.16016,0,1.16016-.77343a.6752.6752,0,0,0-.09864-.373.99114.99114,0,0,0-.26855-.27148,2.10624,2.10624,0,0,0-.39746-.21192q-.22853-.09448-.49219-.19629a6.334,6.334,0,0,1-.6416-.293,1.92332,1.92332,0,0,1-.46192-.333,1.23681,1.23681,0,0,1-.27929-.42139,1.49516,1.49516,0,0,1-.09375-.55322,1.31178,1.31178,0,0,1,.17675-.68457,1.58048,1.58048,0,0,1,.47266-.5,2.21389,2.21389,0,0,1,.67481-.30323,2.99232,2.99232,0,0,1,.78125-.10205,3.16048,3.16048,0,0,1,1.27832.24707v.89161a2.49148,2.49148,0,0,0-1.39649-.39747,1.61717,1.61717,0,0,0-.44629.05664,1.08771,1.08771,0,0,0-.34082.15821.72961.72961,0,0,0-.21972.24414.63645.63645,0,0,0-.07813.31445.74442.74442,0,0,0,.07813.35986.79528.79528,0,0,0,.22754.25782,1.77789,1.77789,0,0,0,.36523.2041q.21533.09154.48926.19873a6.96344,6.96344,0,0,1,.65527.28711,2.286,2.286,0,0,1,.49414.333,1.32429,1.32429,0,0,1,.31445.42724,1.37937,1.37937,0,0,1,.10938.57471,1.35417,1.35417,0,0,1-.17969.709,1.54312,1.54312,0,0,1-.48047.49952,2.21178,2.21178,0,0,1-.69336.29541,3.41514,3.41514,0,0,1-.82129.09668A3.11967,3.11967,0,0,1,326.89062,250.90088Z" transform="translate(-46.1377 -125.99512)"/><line class="d" x1="180.6174" y1="58.82068" x2="274.61691" y2="58.82068"/><polygon class="e" points="272.001 62.656 286.311 58.821 272.001 54.986 272.001 62.656"/><line class="d" x1="138.29472" y1="79.00893" x2="138.29472" y2="106.49675"/><polygon class="e" points="134.46 103.881 138.295 118.191 142.13 103.881 134.46 103.881"/><line class="d" x1="412.78067" y1="58.82068" x2="299.07693" y2="58.82068"/><path class="e" d="M345.38382,181.432a3.38379,3.38379,0,1,0,3.38376,3.38379A3.38413,3.38413,0,0,0,345.38382,181.432Z" transform="translate(-46.1377 -125.99512)"/><line class="d" x1="412.78067" y1="137.02759" x2="299.07693" y2="137.02759"/><path class="e" d="M345.38382,259.63892a3.38379,3.38379,0,1,0,3.38376,3.38379A3.38412,3.38412,0,0,0,345.38382,259.63892Z" transform="translate(-46.1377 -125.99512)"/><rect class="f" x="66.49079" y="44.36548" width="110.59516" height="28.9104" rx="3.35084"/><path class="g" d="M219.87256,200.521H115.97949a4.6062,4.6062,0,0,1-4.60107-4.60108V173.71143a4.60609,4.60609,0,0,1,4.60107-4.60059H219.87256a4.60609,4.60609,0,0,1,4.60107,4.60059v22.20849A4.6062,4.6062,0,0,1,219.87256,200.521ZM115.97949,171.61084a2.10315,2.10315,0,0,0-2.10107,2.10059v22.20849a2.10326,2.10326,0,0,0,2.10107,2.10108H219.87256a2.10326,2.10326,0,0,0,2.10107-2.10108V173.71143a2.10315,2.10315,0,0,0-2.10107-2.10059Z" transform="translate(-46.1377 -125.99512)"/><rect class="h" x="66.49079" y="122.57238" width="110.59516" height="28.9104" rx="3.35084"/><path class="i" d="M219.87256,278.728H115.97949a4.6062,4.6062,0,0,1-4.60107-4.60108V251.91846a4.6062,4.6062,0,0,1,4.60107-4.60108H219.87256a4.6062,4.6062,0,0,1,4.60107,4.60108V274.127A4.6062,4.6062,0,0,1,219.87256,278.728ZM115.97949,249.81738a2.10326,2.10326,0,0,0-2.10107,2.10108V274.127a2.10326,2.10326,0,0,0,2.10107,2.10108H219.87256a2.10326,2.10326,0,0,0,2.10107-2.10108V251.91846a2.10326,2.10326,0,0,0-2.10107-2.10108Z" transform="translate(-46.1377 -125.99512)"/><rect class="h" x="417.08679" y="32.8008" width="69.79592" height="127.73469" rx="3.35084"/><path class="i" d="M529.66992,287.78076H466.5752a4.60578,4.60578,0,0,1-4.60059-4.60107V162.147a4.60578,4.60578,0,0,1,4.60059-4.60107h63.09472a4.60578,4.60578,0,0,1,4.60059,4.60107V283.17969A4.60578,4.60578,0,0,1,529.66992,287.78076ZM466.5752,160.0459a2.10315,2.10315,0,0,0-2.10059,2.10107V283.17969a2.10315,2.10315,0,0,0,2.10059,2.10107h63.09472a2.10315,2.10315,0,0,0,2.10059-2.10107V162.147a2.10315,2.10315,0,0,0-2.10059-2.10107Z" transform="translate(-46.1377 -125.99512)"/><path class="b" d="M133.54443,181.52734h-2.21289v6.61719h-1.27832v-6.61719H127.8457v-1.085h5.69873Z" transform="translate(-46.1377 -125.99512)"/><path class="b" d="M138.73828,182.64453l-2.48144,6.38086a2.40394,2.40394,0,0,1-2.16993,1.708,2.60913,2.60913,0,0,1-.65527-.06983V189.627a1.74161,1.74161,0,0,0,.53711.09668,1.10813,1.10813,0,0,0,1.042-.6875l.37061-.90234-2.186-5.48926h1.38037l1.31055,3.99609q.02124.07545.09668.39747h.02686q.02709-.12378.09668-.38672l1.375-4.00684Z" transform="translate(-46.1377 -125.99512)"/><path class="b" d="M140.833,187.3335h-.02149v3.34082h-1.24609v-8.02979h1.24609v.9668h.02149a2.04236,2.04236,0,0,1,1.86914-1.09571,1.96855,1.96855,0,0,1,1.63281.73584,3.0875,3.0875,0,0,1,.58545,1.97657,3.4267,3.4267,0,0,1-.66064,2.20215,2.18555,2.18555,0,0,1-1.80469.82714A1.80248,1.80248,0,0,1,140.833,187.3335Zm-.03223-2.16993v.68213a1.45452,1.45452,0,0,0,.38428,1.02051,1.35526,1.35526,0,0,0,2.0625-.12109,2.51376,2.51376,0,0,0,.39453-1.50635,1.97649,1.97649,0,0,0-.36816-1.27,1.20738,1.20738,0,0,0-.9961-.45947,1.34219,1.34219,0,0,0-1.07129.47265A1.74994,1.74994,0,0,0,140.80078,185.16357Z" transform="translate(-46.1377 -125.99512)"/><path class="b" d="M150.8501,185.73291h-3.749a1.58517,1.58517,0,0,0,.46973,1.17627,1.74874,1.74874,0,0,0,1.23291.41357,2.71709,2.71709,0,0,0,1.6167-.52636v1.00439a3.69511,3.69511,0,0,1-1.9873.47266,2.46293,2.46293,0,0,1-1.9043-.749,2.99939,2.99939,0,0,1-.68994-2.10839,2.92872,2.92872,0,0,1,.76025-2.0918,2.48467,2.48467,0,0,1,1.8877-.8086,2.16749,2.16749,0,0,1,1.7456.7251,3.01138,3.01138,0,0,1,.61768,2.01416Zm-1.20313-.88086a1.604,1.604,0,0,0-.31689-1.04443,1.05833,1.05833,0,0,0-.85938-.37354,1.2109,1.2109,0,0,0-.91064.39209,1.79206,1.79206,0,0,0-.459,1.02588Z" transform="translate(-46.1377 -125.99512)"/><path class="b" d="M151.82227,187.83838v-1.31592a2.0392,2.0392,0,0,0,.42138.29,3.31363,3.31363,0,0,0,.51856.21777,4.15637,4.15637,0,0,0,.54785.13672,2.92186,2.92186,0,0,0,.50488.04834,2.15139,2.15139,0,0,0,1.2002-.26855.88265.88265,0,0,0,.395-.77881.85391.85391,0,0,0-.13135-.47559,1.38523,1.38523,0,0,0-.36817-.36767,3.94254,3.94254,0,0,0-.55566-.31983q-.32007-.15234-.68506-.31933-.39184-.20948-.73047-.42432a3.16785,3.16785,0,0,1-.58838-.4751,1.999,1.999,0,0,1-.3916-.58838,1.90981,1.90981,0,0,1-.14258-.76806,1.774,1.774,0,0,1,.24415-.94239,2.067,2.067,0,0,1,.64453-.66113,2.97379,2.97379,0,0,1,.91064-.38672,4.33228,4.33228,0,0,1,1.042-.126,4.20527,4.20527,0,0,1,1.76172.27392v1.26221a2.8152,2.8152,0,0,0-1.68652-.47266,3.0412,3.0412,0,0,0-.5669.05371,1.68366,1.68366,0,0,0-.50488.17725,1.0971,1.0971,0,0,0-.3623.31689.77556.77556,0,0,0-.13965.46729.88244.88244,0,0,0,.10742.4458,1.14884,1.14884,0,0,0,.31445.34375,3.18067,3.18067,0,0,0,.50489.30371q.29736.14722.68994.31934.40283.20948.76025.44043a3.58505,3.58505,0,0,1,.62793.51025,2.22839,2.22839,0,0,1,.42969.62061,1.81477,1.81477,0,0,1,.15869.77588,1.822,1.822,0,0,1-.87256,1.64355,2.83685,2.83685,0,0,1-.92139.36523,5.192,5.192,0,0,1-1.10107.1128,4.74032,4.74032,0,0,1-.47559-.0293c-.1875-.02-.38037-.04883-.57714-.08594a5.43327,5.43327,0,0,1-.5586-.1372A1.77793,1.77793,0,0,1,151.82227,187.83838Z" transform="translate(-46.1377 -125.99512)"/><path class="b" d="M161.96289,187.89209a3.07142,3.07142,0,0,1-1.563.38135,2.64549,2.64549,0,0,1-1.97656-.76563,2.709,2.709,0,0,1-.75195-1.98437,2.98651,2.98651,0,0,1,.8081-2.1836,2.89191,2.89191,0,0,1,2.16211-.82422,3.15832,3.15832,0,0,1,1.32666.26319V183.939a2.009,2.009,0,0,0-1.22461-.42968,1.70123,1.70123,0,0,0-1.29443.53467,1.95337,1.95337,0,0,0-.50488,1.39892,1.86159,1.86159,0,0,0,.47558,1.34815,1.68551,1.68551,0,0,0,1.27539.49414,1.99227,1.99227,0,0,0,1.26758-.478Z" transform="translate(-46.1377 -125.99512)"/><path class="b" d="M166.38867,183.83154a1.03325,1.03325,0,0,0-.6499-.17724,1.1127,1.1127,0,0,0-.92383.49951,2.234,2.234,0,0,0-.3706,1.35889v2.63183h-1.2461v-5.5h1.2461v1.1333h.02148a1.91565,1.91565,0,0,1,.561-.90478,1.2677,1.2677,0,0,1,.84619-.3252,1.052,1.052,0,0,1,.51562.102Z" transform="translate(-46.1377 -125.99512)"/><path class="b" d="M167.898,181.48975a.74847.74847,0,0,1-.52344-.19873.65227.65227,0,0,1-.21777-.50489.66938.66938,0,0,1,.21777-.51025.736.736,0,0,1,.52344-.2041.76048.76048,0,0,1,.53711.2041.66647.66647,0,0,1,.22021.51025.65794.65794,0,0,1-.22021.49707A.75613.75613,0,0,1,167.898,181.48975Zm.61767,6.65478h-1.24609v-5.5h1.24609Z" transform="translate(-46.1377 -125.99512)"/><path class="b" d="M171.41064,187.3335h-.02148v3.34082h-1.24609v-8.02979h1.24609v.9668h.02148a2.04237,2.04237,0,0,1,1.86915-1.09571,1.96855,1.96855,0,0,1,1.63281.73584,3.08756,3.08756,0,0,1,.58545,1.97657,3.42671,3.42671,0,0,1-.66065,2.20215,2.18554,2.18554,0,0,1-1.80469.82714A1.80249,1.80249,0,0,1,171.41064,187.3335Zm-.03222-2.16993v.68213a1.45452,1.45452,0,0,0,.38428,1.02051,1.35526,1.35526,0,0,0,2.0625-.12109,2.51376,2.51376,0,0,0,.39453-1.50635,1.97644,1.97644,0,0,0-.36817-1.27,1.20736,1.20736,0,0,0-.99609-.45947,1.34219,1.34219,0,0,0-1.07129.47265A1.74989,1.74989,0,0,0,171.37842,185.16357Z" transform="translate(-46.1377 -125.99512)"/><path class="b" d="M179.67139,188.08545a2.16231,2.16231,0,0,1-.96143.18262q-1.60034,0-1.60058-1.53614v-3.10986h-.91846v-.97754h.91846v-1.273l1.24609-.35449v1.62744h1.31592v.97754h-1.31592v2.75a1.08393,1.08393,0,0,0,.17724.69824.73561.73561,0,0,0,.59083.20948.857.857,0,0,0,.54785-.18262Z" transform="translate(-46.1377 -125.99512)"/><path class="b" d="M186.66992,188.08545a2.16223,2.16223,0,0,1-.96142.18262q-1.60035,0-1.60059-1.53614v-3.10986h-.91846v-.97754h.91846v-1.273l1.24609-.35449v1.62744h1.31592v.97754H185.354v2.75a1.08392,1.08392,0,0,0,.17725.69824.73558.73558,0,0,0,.59082.20948.857.857,0,0,0,.54785-.18262Z" transform="translate(-46.1377 -125.99512)"/><path class="b" d="M192.33643,185.73291h-3.749a1.58517,1.58517,0,0,0,.46973,1.17627,1.74874,1.74874,0,0,0,1.23291.41357,2.71709,2.71709,0,0,0,1.6167-.52636v1.00439a3.69517,3.69517,0,0,1-1.98731.47266,2.46292,2.46292,0,0,1-1.90429-.749,2.99939,2.99939,0,0,1-.68994-2.10839,2.92868,2.92868,0,0,1,.76025-2.0918,2.48467,2.48467,0,0,1,1.88769-.8086,2.1675,2.1675,0,0,1,1.74561.7251,3.01138,3.01138,0,0,1,.61768,2.01416Zm-1.20313-.88086a1.604,1.604,0,0,0-.31689-1.04443,1.05833,1.05833,0,0,0-.85938-.37354,1.2109,1.2109,0,0,0-.91064.39209,1.79206,1.79206,0,0,0-.459,1.02588Z" transform="translate(-46.1377 -125.99512)"/><path class="b" d="M193.17969,187.97266v-1.15479a2.48589,2.48589,0,0,0,1.5415.53174q1.12792,0,1.12793-.666a.52313.52313,0,0,0-.09668-.31933.91765.91765,0,0,0-.26074-.23389,2.03887,2.03887,0,0,0-.38672-.18262q-.22266-.08057-.49658-.18261a5.28949,5.28949,0,0,1-.60986-.28467,1.84754,1.84754,0,0,1-.45118-.34082,1.29867,1.29867,0,0,1-.271-.43262,1.58832,1.58832,0,0,1-.09131-.564,1.30039,1.30039,0,0,1,.188-.70069,1.635,1.635,0,0,1,.50488-.51074,2.43982,2.43982,0,0,1,.71973-.31152,3.31589,3.31589,0,0,1,.83252-.1045,3.788,3.788,0,0,1,1.36425.231v1.09033a2.29829,2.29829,0,0,0-1.332-.39746,1.736,1.736,0,0,0-.42676.04834,1.1025,1.1025,0,0,0-.32519.13428.65791.65791,0,0,0-.20947.207.49.49,0,0,0-.0752.26563.567.567,0,0,0,.0752.30078.68606.68606,0,0,0,.22314.21777,1.9366,1.9366,0,0,0,.35449.17188q.20655.07762.4751.16894a6.92052,6.92052,0,0,1,.63623.29541,2.1232,2.1232,0,0,1,.481.34131,1.33523,1.33523,0,0,1,.30615.44043,1.49021,1.49021,0,0,1,.10742.59326,1.35621,1.35621,0,0,1-.19336.73047,1.61492,1.61492,0,0,1-.51562.51563,2.40137,2.40137,0,0,1-.74414.30322,3.85166,3.85166,0,0,1-.88867.09961A3.74271,3.74271,0,0,1,193.17969,187.97266Z" transform="translate(-46.1377 -125.99512)"/><path class="b" d="M201.1665,188.08545a2.16223,2.16223,0,0,1-.96142.18262q-1.60035,0-1.60059-1.53614v-3.10986H197.686v-.97754h.91845v-1.273l1.2461-.35449v1.62744h1.31591v.97754h-1.31591v2.75a1.08393,1.08393,0,0,0,.17724.69824.73559.73559,0,0,0,.59082.20948.857.857,0,0,0,.54785-.18262Z" transform="translate(-46.1377 -125.99512)"/><path class="b" d="M201.897,187.97266v-1.15479a2.48589,2.48589,0,0,0,1.54151.53174q1.12792,0,1.12793-.666a.52313.52313,0,0,0-.09668-.31933.9177.9177,0,0,0-.26075-.23389,2.03876,2.03876,0,0,0-.38671-.18262q-.22266-.08057-.49659-.18261a5.29028,5.29028,0,0,1-.60986-.28467,1.84767,1.84767,0,0,1-.45117-.34082,1.29885,1.29885,0,0,1-.271-.43262,1.58854,1.58854,0,0,1-.09131-.564,1.30039,1.30039,0,0,1,.188-.70069,1.63506,1.63506,0,0,1,.50488-.51074,2.43994,2.43994,0,0,1,.71973-.31152,3.316,3.316,0,0,1,.83252-.1045,3.78805,3.78805,0,0,1,1.36426.231v1.09033a2.29832,2.29832,0,0,0-1.332-.39746,1.73592,1.73592,0,0,0-.42676.04834,1.10268,1.10268,0,0,0-.3252.13428.658.658,0,0,0-.20947.207.49.49,0,0,0-.07519.26563.56708.56708,0,0,0,.07519.30078.686.686,0,0,0,.22315.21777,1.936,1.936,0,0,0,.35449.17188q.20654.07762.4751.16894a6.92176,6.92176,0,0,1,.63623.29541,2.12313,2.12313,0,0,1,.481.34131,1.33511,1.33511,0,0,1,.30616.44043,1.49038,1.49038,0,0,1,.10742.59326,1.3563,1.3563,0,0,1-.19336.73047,1.615,1.615,0,0,1-.51563.51563,2.40127,2.40127,0,0,1-.74414.30322,3.85166,3.85166,0,0,1-.88867.09961A3.74274,3.74274,0,0,1,201.897,187.97266Z" transform="translate(-46.1377 -125.99512)"/><path class="c" d="M69.43066,226.34668H68.5498v-3.1582a2.37741,2.37741,0,0,0-.28222-1.32129,1.0689,1.0689,0,0,0-.94776-.40821,1.1729,1.1729,0,0,0-.95849.51563,1.96946,1.96946,0,0,0-.395,1.23535v3.13672h-.88086v-3.26563q0-1.62231-1.25147-1.62207a1.1589,1.1589,0,0,0-.956.48633,2.00925,2.00925,0,0,0-.376,1.26465v3.13672h-.88086v-5.5H62.502v.87012h.02149a1.86825,1.86825,0,0,1,1.708-.999,1.58934,1.58934,0,0,1,1.55761,1.13868,1.96259,1.96259,0,0,1,1.82617-1.13868q1.81568,0,1.81543,2.23975Z" transform="translate(-46.1377 -125.99512)"/><path class="c" d="M73.39453,226.47559a2.55211,2.55211,0,0,1-1.94726-.77051,2.85728,2.85728,0,0,1-.72754-2.04395,2.97383,2.97383,0,0,1,.75732-2.16455,2.72327,2.72327,0,0,1,2.04639-.77881,2.4662,2.4662,0,0,1,1.91992.75733,3.00164,3.00164,0,0,1,.69043,2.1001,2.95482,2.95482,0,0,1-.74414,2.10839A2.60632,2.60632,0,0,1,73.39453,226.47559ZM73.459,221.459a1.67579,1.67579,0,0,0-1.34277.57715,2.3718,2.3718,0,0,0-.49414,1.59278,2.24236,2.24236,0,0,0,.49951,1.5415,1.69762,1.69762,0,0,0,1.3374.564,1.612,1.612,0,0,0,1.31348-.55323,2.40345,2.40345,0,0,0,.459-1.57373,2.445,2.445,0,0,0-.459-1.58984A1.60389,1.60389,0,0,0,73.459,221.459Z" transform="translate(-46.1377 -125.99512)"/><path class="c" d="M81.29,226.09424a2.86027,2.86027,0,0,1-1.50391.38135A2.48755,2.48755,0,0,1,77.8877,225.71a2.77081,2.77081,0,0,1-.72266-1.98437,3.05108,3.05108,0,0,1,.77881-2.1836,2.725,2.725,0,0,1,2.07861-.82422,2.89059,2.89059,0,0,1,1.27832.26856v.90234a2.23888,2.23888,0,0,0-1.31055-.42969,1.76871,1.76871,0,0,0-1.38281.6045,2.28922,2.28922,0,0,0-.54,1.58691,2.18128,2.18128,0,0,0,.50782,1.52539,1.74767,1.74767,0,0,0,1.36132.5586,2.206,2.206,0,0,0,1.35352-.478Z" transform="translate(-46.1377 -125.99512)"/><path class="c" d="M87.1875,226.34668H85.95215l-2.42774-2.64258h-.02148v2.64258h-.88086V218.2041h.88086v5.16162h.02148l2.30957-2.519h1.15479L84.4375,223.5Z" transform="translate(-46.1377 -125.99512)"/><path class="c" d="M89.11035,226.34668H88.208v-7.70215h.90234Z" transform="translate(-46.1377 -125.99512)"/><path class="c" d="M95.58252,226.34668h-.88086V223.21q0-1.75122-1.27832-1.751a1.38508,1.38508,0,0,0-1.09277.49707A1.83913,1.83913,0,0,0,91.898,223.21v3.13672h-.88086v-5.5H91.898v.91309h.02148a1.98511,1.98511,0,0,1,1.80469-1.042,1.68257,1.68257,0,0,1,1.38037.583,2.59387,2.59387,0,0,1,.478,1.6836Z" transform="translate(-46.1377 -125.99512)"/><path class="c" d="M96.90918,226.148v-.94531a2.60679,2.60679,0,0,0,1.58447.53174q1.16016,0,1.16016-.77344a.67131.67131,0,0,0-.09912-.37305.99118.99118,0,0,0-.26856-.27148,2.09089,2.09089,0,0,0-.39746-.21192q-.22851-.09448-.4917-.19629a6.29634,6.29634,0,0,1-.64209-.293,1.93286,1.93286,0,0,1-.46191-.333,1.24385,1.24385,0,0,1-.2793-.42139,1.49516,1.49516,0,0,1-.09375-.55322,1.312,1.312,0,0,1,.17725-.68457,1.575,1.575,0,0,1,.47265-.5,2.206,2.206,0,0,1,.67432-.30323,2.99237,2.99237,0,0,1,.78125-.102,3.15882,3.15882,0,0,1,1.27832.24707v.89161a2.49031,2.49031,0,0,0-1.39648-.39747,1.6135,1.6135,0,0,0-.4458.05664,1.09034,1.09034,0,0,0-.34131.15821.72964.72964,0,0,0-.21973.24414.64172.64172,0,0,0-.07812.31445.75015.75015,0,0,0,.07812.35987.79151.79151,0,0,0,.228.25781,1.75279,1.75279,0,0,0,.36523.2041q.2146.09154.48877.19873a6.90793,6.90793,0,0,1,.65528.28711,2.27429,2.27429,0,0,1,.49414.333,1.31026,1.31026,0,0,1,.31445.42724,1.37936,1.37936,0,0,1,.10986.57471,1.35446,1.35446,0,0,1-.18017.709,1.53317,1.53317,0,0,1-.48047.49952,2.20906,2.20906,0,0,1-.69287.29541,3.41927,3.41927,0,0,1-.82178.09668A3.12241,3.12241,0,0,1,96.90918,226.148Z" transform="translate(-46.1377 -125.99512)"/><path class="c" d="M104.46094,226.293a1.69566,1.69566,0,0,1-.82178.17187q-1.44507,0-1.44482-1.61132v-3.25489H101.249v-.752h.94532v-1.34277l.88086-.28467v1.62744h1.38574v.752H103.0752v3.09912a1.28433,1.28433,0,0,0,.188.78955.74988.74988,0,0,0,.623.23633.92679.92679,0,0,0,.57471-.18261Z" transform="translate(-46.1377 -125.99512)"/><path class="c" d="M109.57422,226.34668h-.88086v-.85938h-.02148a1.84475,1.84475,0,0,1-1.6919.98829,1.80723,1.80723,0,0,1-1.28613-.43506,1.5061,1.5061,0,0,1-.46485-1.15479q0-1.54174,1.81543-1.79394l1.64893-.231q0-1.40186-1.1333-1.40186a2.7076,2.7076,0,0,0-1.79395.67676v-.90234a3.40769,3.40769,0,0,1,1.86914-.51563q1.93872,0,1.939,2.05176Zm-.88086-2.78223-1.32666.18262a2.14419,2.14419,0,0,0-.92383.30371.87474.87474,0,0,0-.31152.77051.84076.84076,0,0,0,.28711.6582,1.112,1.112,0,0,0,.76562.25489,1.41384,1.41384,0,0,0,1.082-.459,1.64,1.64,0,0,0,.42725-1.16309Z" transform="translate(-46.1377 -125.99512)"/><path class="c" d="M115.79932,226.34668h-.88086V223.21q0-1.75122-1.27832-1.751a1.38512,1.38512,0,0,0-1.09278.49707,1.83917,1.83917,0,0,0-.43261,1.25391v3.13672h-.88086v-5.5h.88086v.91309h.02148a1.98511,1.98511,0,0,1,1.80469-1.042,1.68257,1.68257,0,0,1,1.38037.583,2.59387,2.59387,0,0,1,.478,1.6836Z" transform="translate(-46.1377 -125.99512)"/><path class="c" d="M121.208,226.09424a2.86029,2.86029,0,0,1-1.50391.38135,2.48759,2.48759,0,0,1-1.89844-.76563,2.77085,2.77085,0,0,1-.72265-1.98437,3.05108,3.05108,0,0,1,.77881-2.1836,2.725,2.725,0,0,1,2.07861-.82422,2.89059,2.89059,0,0,1,1.27832.26856v.90234a2.23888,2.23888,0,0,0-1.31055-.42969,1.76871,1.76871,0,0,0-1.38281.6045,2.28922,2.28922,0,0,0-.54,1.58691,2.18132,2.18132,0,0,0,.50781,1.52539,1.74769,1.74769,0,0,0,1.36133.5586,2.206,2.206,0,0,0,1.35352-.478Z" transform="translate(-46.1377 -125.99512)"/><path class="c" d="M126.96045,223.81689h-3.8833a2.05713,2.05713,0,0,0,.49414,1.418,1.70346,1.70346,0,0,0,1.2998.49952,2.70175,2.70175,0,0,0,1.708-.61231v.82715a3.19112,3.19112,0,0,1-1.91748.52637,2.326,2.326,0,0,1-1.83154-.749,3.06935,3.06935,0,0,1-.666-2.1084,3.00739,3.00739,0,0,1,.72754-2.09179,2.334,2.334,0,0,1,1.80762-.8086,2.06845,2.06845,0,0,1,1.67041.69825,2.91,2.91,0,0,1,.59082,1.939Zm-.90234-.74658a1.79393,1.79393,0,0,0-.36768-1.187,1.25527,1.25527,0,0,0-1.00732-.42432,1.422,1.422,0,0,0-1.05811.44581,2.022,2.022,0,0,0-.53711,1.16552Z" transform="translate(-46.1377 -125.99512)"/><path class="c" d="M128.59863,226.46484a.56959.56959,0,0,1-.42138-.17724.58261.58261,0,0,1-.17481-.42432.5905.5905,0,0,1,.17481-.42676.5651.5651,0,0,1,.42138-.18017.58014.58014,0,0,1,.42969.18017.587.587,0,0,1,.17725.42676.60518.60518,0,0,1-.60694.60156Z" transform="translate(-46.1377 -125.99512)"/><path class="c" d="M133.54541,221.73828a1.07683,1.07683,0,0,0-.666-.17724,1.12307,1.12307,0,0,0-.94238.53173,2.4549,2.4549,0,0,0-.3789,1.4502v2.80371h-.88086v-5.5h.88086V221.98h.02148a1.91923,1.91923,0,0,1,.57471-.90478,1.30962,1.30962,0,0,1,.86474-.3252,1.43437,1.43437,0,0,1,.52637.0752Z" transform="translate(-46.1377 -125.99512)"/><path class="c" d="M138.92188,223.81689h-3.88331a2.05713,2.05713,0,0,0,.49414,1.418,1.7035,1.7035,0,0,0,1.29981.49952,2.70177,2.70177,0,0,0,1.708-.61231v.82715a3.19112,3.19112,0,0,1-1.91748.52637,2.32606,2.32606,0,0,1-1.83155-.749,3.0694,3.0694,0,0,1-.666-2.1084,3.00734,3.00734,0,0,1,.72754-2.09179,2.334,2.334,0,0,1,1.80761-.8086,2.06845,2.06845,0,0,1,1.67041.69825,2.91,2.91,0,0,1,.59083,1.939Zm-.90235-.74658a1.79393,1.79393,0,0,0-.36767-1.187,1.25527,1.25527,0,0,0-1.00733-.42432,1.422,1.422,0,0,0-1.0581.44581,2.022,2.022,0,0,0-.53711,1.16552Z" transform="translate(-46.1377 -125.99512)"/><path class="c" d="M144.94824,225.90625q0,3.02929-2.90039,3.0293a3.8943,3.8943,0,0,1-1.7832-.38672V227.668a3.66323,3.66323,0,0,0,1.77246.51562q2.03027,0,2.03027-2.15918v-.60156h-.02148a2.22486,2.22486,0,0,1-3.542.31934,2.92726,2.92726,0,0,1-.626-1.96826,3.42469,3.42469,0,0,1,.67383-2.229,2.253,2.253,0,0,1,1.84521-.82715,1.79288,1.79288,0,0,1,1.64893.89161h.02148v-.7627h.88086Zm-.88086-2.04639v-.811a1.57143,1.57143,0,0,0-.44336-1.12256,1.45753,1.45753,0,0,0-1.10351-.46729,1.52886,1.52886,0,0,0-1.27832.59375,2.64731,2.64731,0,0,0-.46192,1.66211,2.27007,2.27007,0,0,0,.44336,1.46875,1.43045,1.43045,0,0,0,1.17334.55079,1.53194,1.53194,0,0,0,1.20557-.52637A1.96082,1.96082,0,0,0,144.06738,223.85986Z" transform="translate(-46.1377 -125.99512)"/><path class="c" d="M147.18262,219.4502a.55754.55754,0,0,1-.40283-.16114.5447.5447,0,0,1-.16651-.4082.56372.56372,0,0,1,.56934-.57471.5713.5713,0,0,1,.41113.16358.57462.57462,0,0,1,0,.814A.566.566,0,0,1,147.18262,219.4502Zm.42968,6.89648h-.88085v-5.5h.88085Z" transform="translate(-46.1377 -125.99512)"/><path class="c" d="M149.0625,226.148v-.94531a2.60679,2.60679,0,0,0,1.58447.53174q1.16016,0,1.16016-.77344a.67131.67131,0,0,0-.09912-.37305.99118.99118,0,0,0-.26856-.27148,2.09089,2.09089,0,0,0-.39746-.21192q-.22851-.09448-.4917-.19629a6.29634,6.29634,0,0,1-.64209-.293,1.93286,1.93286,0,0,1-.46191-.333,1.24385,1.24385,0,0,1-.2793-.42139,1.49516,1.49516,0,0,1-.09375-.55322,1.312,1.312,0,0,1,.17725-.68457,1.575,1.575,0,0,1,.47265-.5,2.206,2.206,0,0,1,.67432-.30323,2.99237,2.99237,0,0,1,.78125-.102,3.15878,3.15878,0,0,1,1.27832.24707v.89161a2.49031,2.49031,0,0,0-1.39648-.39747,1.6135,1.6135,0,0,0-.4458.05664,1.09034,1.09034,0,0,0-.34131.15821.72964.72964,0,0,0-.21973.24414.64172.64172,0,0,0-.07812.31445.75015.75015,0,0,0,.07812.35987.79151.79151,0,0,0,.228.25781,1.75279,1.75279,0,0,0,.36523.2041q.21461.09154.48877.19873a6.90793,6.90793,0,0,1,.65528.28711,2.27405,2.27405,0,0,1,.49414.333,1.31026,1.31026,0,0,1,.31445.42724,1.37936,1.37936,0,0,1,.10986.57471,1.35446,1.35446,0,0,1-.18017.709,1.53317,1.53317,0,0,1-.48047.49952,2.20906,2.20906,0,0,1-.69287.29541,3.41927,3.41927,0,0,1-.82178.09668A3.12241,3.12241,0,0,1,149.0625,226.148Z" transform="translate(-46.1377 -125.99512)"/><path class="c" d="M156.61426,226.293a1.69566,1.69566,0,0,1-.82178.17187q-1.44507,0-1.44482-1.61132v-3.25489h-.94532v-.752h.94532v-1.34277l.88086-.28467v1.62744h1.38574v.752h-1.38574v3.09912a1.28433,1.28433,0,0,0,.188.78955.74988.74988,0,0,0,.623.23633.92679.92679,0,0,0,.57471-.18261Z" transform="translate(-46.1377 -125.99512)"/><path class="c" d="M162.21094,223.81689h-3.8833a2.05713,2.05713,0,0,0,.49414,1.418,1.70346,1.70346,0,0,0,1.2998.49952,2.70175,2.70175,0,0,0,1.708-.61231v.82715a3.19112,3.19112,0,0,1-1.91748.52637,2.326,2.326,0,0,1-1.83154-.749,3.06935,3.06935,0,0,1-.666-2.1084,3.00739,3.00739,0,0,1,.72754-2.09179,2.334,2.334,0,0,1,1.80762-.8086,2.06847,2.06847,0,0,1,1.67041.69825,2.91,2.91,0,0,1,.59082,1.939Zm-.90235-.74658a1.79388,1.79388,0,0,0-.36767-1.187,1.25527,1.25527,0,0,0-1.00733-.42432,1.422,1.422,0,0,0-1.0581.44581,2.022,2.022,0,0,0-.53711,1.16552Z" transform="translate(-46.1377 -125.99512)"/><path class="c" d="M166.41113,221.73828a1.0768,1.0768,0,0,0-.666-.17724,1.12309,1.12309,0,0,0-.94239.53173,2.4549,2.4549,0,0,0-.3789,1.4502v2.80371H163.543v-5.5h.88086V221.98h.02148a1.91931,1.91931,0,0,1,.57471-.90478,1.30962,1.30962,0,0,1,.86475-.3252,1.43435,1.43435,0,0,1,.52636.0752Z" transform="translate(-46.1377 -125.99512)"/><path class="c" d="M169.67676,228.09766h-.78418a6.86472,6.86472,0,0,1-1.665-4.689,7.12458,7.12458,0,0,1,1.665-4.76416h.79492A7.23836,7.23836,0,0,0,168.001,223.398,7.11242,7.11242,0,0,0,169.67676,228.09766Z" transform="translate(-46.1377 -125.99512)"/><path class="c" d="M170.708,228.09766h-.78418a7.11242,7.11242,0,0,0,1.67578-4.69971,7.23836,7.23836,0,0,0-1.68652-4.75342h.79492a7.09561,7.09561,0,0,1,1.67578,4.76416A6.83737,6.83737,0,0,1,170.708,228.09766Z" transform="translate(-46.1377 -125.99512)"/><path class="c" d="M57.95752,134.1377H56.85107l-3.96386-6.13916a2.565,2.565,0,0,1-.24707-.4834h-.03223a7.89986,7.89986,0,0,1,.043,1.0581v5.56446h-.90234v-7.70215h1.17089l3.85645,6.04248q.2417.37574.31152.51562h.02149a8.17446,8.17446,0,0,1-.05371-1.1333v-5.4248h.90234Z" transform="translate(-46.1377 -125.99512)"/><path class="c" d="M62.15771,134.2666a2.55209,2.55209,0,0,1-1.94726-.77051,2.85732,2.85732,0,0,1-.72754-2.04394,2.97383,2.97383,0,0,1,.75732-2.16455,2.72326,2.72326,0,0,1,2.04639-.77881,2.46622,2.46622,0,0,1,1.91992.75732,3.00166,3.00166,0,0,1,.69043,2.1001,2.9548,2.9548,0,0,1-.74414,2.1084A2.60632,2.60632,0,0,1,62.15771,134.2666Zm.06446-5.0166a1.67577,1.67577,0,0,0-1.34278.57715,2.37176,2.37176,0,0,0-.49414,1.59277,2.24237,2.24237,0,0,0,.49952,1.54151,1.69762,1.69762,0,0,0,1.3374.564,1.612,1.612,0,0,0,1.31347-.55322,2.40341,2.40341,0,0,0,.459-1.57373,2.445,2.445,0,0,0-.459-1.58985A1.60391,1.60391,0,0,0,62.22217,129.25Z" transform="translate(-46.1377 -125.99512)"/><path class="c" d="M70.99854,134.1377h-.88086v-.93458h-.02149a2.03357,2.03357,0,0,1-1.89062,1.06348,2.05593,2.05593,0,0,1-1.65723-.73828,3.03353,3.03353,0,0,1-.62012-2.01172,3.29492,3.29492,0,0,1,.6875-2.186,2.26772,2.26772,0,0,1,1.83155-.82178,1.76352,1.76352,0,0,1,1.64892.8916h.02149v-3.40527h.88086Zm-.88086-2.48682v-.811a1.57473,1.57473,0,0,0-.44043-1.12793,1.47642,1.47642,0,0,0-1.11719-.46191,1.52082,1.52082,0,0,0-1.26758.59082,2.588,2.588,0,0,0-.46191,1.63281,2.3244,2.3244,0,0,0,.44336,1.501,1.44708,1.44708,0,0,0,1.18945.55078,1.5054,1.5054,0,0,0,1.19531-.53174A1.98356,1.98356,0,0,0,70.11768,131.65088Z" transform="translate(-46.1377 -125.99512)"/><path class="c" d="M77.20215,131.60791h-3.8833a2.05717,2.05717,0,0,0,.49414,1.418,1.70346,1.70346,0,0,0,1.2998.49951,2.70174,2.70174,0,0,0,1.708-.6123v.82714a3.191,3.191,0,0,1-1.91748.52637,2.326,2.326,0,0,1-1.83154-.749,3.06937,3.06937,0,0,1-.666-2.1084,3.00741,3.00741,0,0,1,.72754-2.0918,2.334,2.334,0,0,1,1.80762-.80859,2.06848,2.06848,0,0,1,1.67041.69824,2.91005,2.91005,0,0,1,.59082,1.939Zm-.90235-.74658a1.79386,1.79386,0,0,0-.36767-1.187A1.25524,1.25524,0,0,0,74.9248,129.25a1.42205,1.42205,0,0,0-1.0581.4458,2.02206,2.02206,0,0,0-.53711,1.16553Z" transform="translate(-46.1377 -125.99512)"/><path class="c" d="M78.84033,134.25586a.56956.56956,0,0,1-.42138-.17725.58257.58257,0,0,1-.17481-.42431.5905.5905,0,0,1,.17481-.42676.56507.56507,0,0,1,.42138-.18018.58011.58011,0,0,1,.42969.18018.587.587,0,0,1,.17725.42676.60519.60519,0,0,1-.60694.60156Z" transform="translate(-46.1377 -125.99512)"/><path class="c" d="M81.7998,133.90674a3.44654,3.44654,0,0,1-.54492,2.08642,1.82718,1.82718,0,0,1-1.56054.7334,1.6545,1.6545,0,0,1-.73047-.17187v-.82178a1.458,1.458,0,0,0,.75195.2417q1.20338,0,1.20313-1.92285V128.6377h.88085Zm-.42968-6.66553a.55753.55753,0,0,1-.40283-.16113.5447.5447,0,0,1-.16651-.4082.56371.56371,0,0,1,.56934-.57471.57134.57134,0,0,1,.41113.16357.57463.57463,0,0,1,0,.814A.566.566,0,0,1,81.37012,127.24121Z" transform="translate(-46.1377 -125.99512)"/><path class="c" d="M83.25,133.939v-.94531a2.60679,2.60679,0,0,0,1.58447.53174q1.16016,0,1.16016-.77344a.67129.67129,0,0,0-.09912-.373.99135.99135,0,0,0-.26856-.27149,2.09145,2.09145,0,0,0-.39746-.21191q-.22851-.09449-.4917-.19629a6.29852,6.29852,0,0,1-.64209-.293,1.9326,1.9326,0,0,1-.46191-.333,1.24371,1.24371,0,0,1-.2793-.42138,1.49518,1.49518,0,0,1-.09375-.55323,1.312,1.312,0,0,1,.17725-.68457,1.57512,1.57512,0,0,1,.47265-.5,2.20573,2.20573,0,0,1,.67432-.30322,2.99237,2.99237,0,0,1,.78125-.102,3.15878,3.15878,0,0,1,1.27832.24707v.8916a2.49031,2.49031,0,0,0-1.39648-.39746,1.61312,1.61312,0,0,0-.4458.05664,1.09033,1.09033,0,0,0-.34131.1582.72974.72974,0,0,0-.21973.24414.64176.64176,0,0,0-.07812.31446.75013.75013,0,0,0,.07812.35986.79131.79131,0,0,0,.228.25781,1.75188,1.75188,0,0,0,.36523.2041q.21461.09156.48877.19874a6.91057,6.91057,0,0,1,.65528.2871,2.27477,2.27477,0,0,1,.49414.333,1.31041,1.31041,0,0,1,.31445.42725,1.37932,1.37932,0,0,1,.10986.57471,1.35446,1.35446,0,0,1-.18017.709,1.53314,1.53314,0,0,1-.48047.49951,2.2086,2.2086,0,0,1-.69287.29541,3.41876,3.41876,0,0,1-.82178.09668A3.12229,3.12229,0,0,1,83.25,133.939Z" transform="translate(-46.1377 -125.99512)"/><path class="c" d="M94.13184,129.5293a1.07676,1.07676,0,0,0-.666-.17725,1.12307,1.12307,0,0,0-.94238.53174,2.45487,2.45487,0,0,0-.37891,1.45019v2.80372h-.88086v-5.5h.88086v1.1333H92.166a1.9193,1.9193,0,0,1,.5747-.90479,1.30963,1.30963,0,0,1,.86475-.32519,1.43469,1.43469,0,0,1,.52637.07519Z" transform="translate(-46.1377 -125.99512)"/><path class="c" d="M99.53516,134.1377H98.6543v-.87012h-.02149a1.809,1.809,0,0,1-1.69726.999q-1.96583,0-1.96582-2.3418v-3.2871h.87548v3.14746q0,1.74023,1.332,1.74023a1.34715,1.34715,0,0,0,1.061-.47559,1.81764,1.81764,0,0,0,.416-1.24316V128.6377h.88086Z" transform="translate(-46.1377 -125.99512)"/><path class="c" d="M105.87842,134.1377h-.88086V131.001q0-1.75122-1.27832-1.751a1.38512,1.38512,0,0,0-1.09278.49707,1.83914,1.83914,0,0,0-.43261,1.25391v3.13672H101.313v-5.5h.88086v.91308h.02148a1.98511,1.98511,0,0,1,1.80469-1.042,1.68254,1.68254,0,0,1,1.38037.583,2.59384,2.59384,0,0,1,.478,1.68359Z" transform="translate(-46.1377 -125.99512)"/><path class="c" d="M110.08936,134.084a1.69554,1.69554,0,0,1-.82178.17188q-1.44507,0-1.44483-1.61133v-3.25488h-.94531v-.75195h.94531v-1.34278l.88086-.28467v1.62745h1.38575v.75195h-1.38575v3.09912a1.28427,1.28427,0,0,0,.188.78955.74988.74988,0,0,0,.62305.23633.92679.92679,0,0,0,.57471-.18262Z" transform="translate(-46.1377 -125.99512)"/><path class="c" d="M111.7168,127.24121a.55757.55757,0,0,1-.40284-.16113.54469.54469,0,0,1-.1665-.4082.56369.56369,0,0,1,.56934-.57471.57134.57134,0,0,1,.41113.16357.57463.57463,0,0,1,0,.814A.566.566,0,0,1,111.7168,127.24121Zm.42968,6.89649h-.88086v-5.5h.88086Z" transform="translate(-46.1377 -125.99512)"/><path class="c" d="M121.73926,134.1377h-.88086v-3.15821a2.37736,2.37736,0,0,0-.28223-1.32129,1.0689,1.0689,0,0,0-.94775-.4082,1.17293,1.17293,0,0,0-.9585.51562,1.96951,1.96951,0,0,0-.395,1.23536v3.13672H117.394v-3.26563q0-1.62231-1.25146-1.62207a1.1589,1.1589,0,0,0-.95606.48633,2.00929,2.00929,0,0,0-.376,1.26465v3.13672h-.88086v-5.5h.88086v.87011h.02148a1.86827,1.86827,0,0,1,1.708-.999,1.58934,1.58934,0,0,1,1.55762,1.13867,1.96257,1.96257,0,0,1,1.82617-1.13867q1.81568,0,1.81543,2.23975Z" transform="translate(-46.1377 -125.99512)"/><path class="c" d="M127.82471,131.60791h-3.8833a2.05717,2.05717,0,0,0,.49414,1.418,1.70346,1.70346,0,0,0,1.2998.49951,2.70174,2.70174,0,0,0,1.708-.6123v.82714a3.191,3.191,0,0,1-1.91748.52637,2.326,2.326,0,0,1-1.83154-.749,3.06937,3.06937,0,0,1-.666-2.1084,3.00741,3.00741,0,0,1,.72754-2.0918,2.334,2.334,0,0,1,1.80762-.80859,2.0685,2.0685,0,0,1,1.67041.69824,2.91005,2.91005,0,0,1,.59082,1.939Zm-.90235-.74658a1.79386,1.79386,0,0,0-.36767-1.187,1.25524,1.25524,0,0,0-1.00733-.42432,1.42205,1.42205,0,0,0-1.0581.4458,2.02206,2.02206,0,0,0-.53711,1.16553Z" transform="translate(-46.1377 -125.99512)"/><path class="c" d="M363.67578,134.1377v-7.70215h2.127q4.0708,0,4.07129,3.75439a3.78352,3.78352,0,0,1-1.13086,2.86572,4.19546,4.19546,0,0,1-3.02636,1.082Zm.90234-6.88575v6.06934h1.14942a3.26052,3.26052,0,0,0,2.35742-.811,3.03926,3.03926,0,0,0,.84375-2.29882q0-2.95973-3.14746-2.95948Z" transform="translate(-46.1377 -125.99512)"/><path class="c" d="M373.56934,134.2666a2.55137,2.55137,0,0,1-1.94727-.77051,2.85519,2.85519,0,0,1-.72754-2.04394,2.97357,2.97357,0,0,1,.75684-2.16455,2.72436,2.72436,0,0,1,2.04687-.77881,2.46693,2.46693,0,0,1,1.91992.75732,3.004,3.004,0,0,1,.69043,2.1001,2.9548,2.9548,0,0,1-.74414,2.1084A2.60777,2.60777,0,0,1,373.56934,134.2666Zm.06445-5.0166a1.6744,1.6744,0,0,0-1.34277.57715,2.36919,2.36919,0,0,0-.49414,1.59277,2.24219,2.24219,0,0,0,.499,1.54151,1.69868,1.69868,0,0,0,1.33789.564,1.612,1.612,0,0,0,1.31348-.55322,2.40347,2.40347,0,0,0,.459-1.57373,2.445,2.445,0,0,0-.459-1.58985A1.60394,1.60394,0,0,0,373.63379,129.25Z" transform="translate(-46.1377 -125.99512)"/><path class="c" d="M381.46484,133.88525a2.86136,2.86136,0,0,1-1.5039.38135,2.48758,2.48758,0,0,1-1.89844-.76562,2.76877,2.76877,0,0,1-.72266-1.98438,3.053,3.053,0,0,1,.77832-2.18359,2.72609,2.72609,0,0,1,2.07911-.82422,2.89212,2.89212,0,0,1,1.27832.26855v.90235A2.24,2.24,0,0,0,380.165,129.25a1.768,1.768,0,0,0-1.38281.60449,2.28925,2.28925,0,0,0-.54,1.58692,2.18128,2.18128,0,0,0,.50781,1.52539,1.74767,1.74767,0,0,0,1.36133.55859,2.208,2.208,0,0,0,1.35351-.478Z" transform="translate(-46.1377 -125.99512)"/><path class="c" d="M387.3623,134.1377H386.127l-2.42773-2.64258h-.02149v2.64258h-.88085v-8.14258h.88085v5.16162h.02149l2.30957-2.519h1.1543L384.6123,131.291Z" transform="translate(-46.1377 -125.99512)"/><path class="c" d="M392.68457,131.60791h-3.88281a2.05252,2.05252,0,0,0,.49414,1.418,1.702,1.702,0,0,0,1.2998.49951,2.70372,2.70372,0,0,0,1.708-.6123v.82714a3.19263,3.19263,0,0,1-1.918.52637,2.325,2.325,0,0,1-1.83105-.749,3.06694,3.06694,0,0,1-.666-2.1084,3.00513,3.00513,0,0,1,.72754-2.0918,2.334,2.334,0,0,1,1.80762-.80859,2.0668,2.0668,0,0,1,1.66992.69824,2.90743,2.90743,0,0,1,.59082,1.939Zm-.90234-.74658a1.79115,1.79115,0,0,0-.36719-1.187,1.25626,1.25626,0,0,0-1.00781-.42432,1.42176,1.42176,0,0,0-1.05762.4458,2.019,2.019,0,0,0-.53711,1.16553Z" transform="translate(-46.1377 -125.99512)"/><path class="c" d="M396.88477,129.5293a1.07579,1.07579,0,0,0-.666-.17725,1.12307,1.12307,0,0,0-.94238.53174,2.45487,2.45487,0,0,0-.37891,1.45019v2.80372h-.88086v-5.5h.88086v1.1333h.02149a1.92371,1.92371,0,0,1,.57519-.90479,1.3093,1.3093,0,0,1,.86426-.32519,1.43114,1.43114,0,0,1,.52637.07519Z" transform="translate(-46.1377 -125.99512)"/><path class="c" d="M404.60352,133.88525a2.86142,2.86142,0,0,1-1.50391.38135,2.48758,2.48758,0,0,1-1.89844-.76562,2.76877,2.76877,0,0,1-.72265-1.98438,3.05291,3.05291,0,0,1,.77832-2.18359,2.72605,2.72605,0,0,1,2.0791-.82422,2.89209,2.89209,0,0,1,1.27832.26855v.90235a2.24,2.24,0,0,0-1.31055-.42969,1.768,1.768,0,0,0-1.38281.60449,2.28925,2.28925,0,0,0-.54,1.58692,2.18128,2.18128,0,0,0,.50781,1.52539,1.74767,1.74767,0,0,0,1.36133.55859,2.208,2.208,0,0,0,1.35352-.478Z" transform="translate(-46.1377 -125.99512)"/><path class="c" d="M408.23438,134.2666a2.55137,2.55137,0,0,1-1.94727-.77051,2.85519,2.85519,0,0,1-.72754-2.04394,2.97357,2.97357,0,0,1,.75684-2.16455,2.72436,2.72436,0,0,1,2.04687-.77881,2.46693,2.46693,0,0,1,1.91992.75732,3.004,3.004,0,0,1,.69043,2.1001,2.9548,2.9548,0,0,1-.74414,2.1084A2.60777,2.60777,0,0,1,408.23438,134.2666Zm.06445-5.0166a1.67443,1.67443,0,0,0-1.34278.57715,2.36925,2.36925,0,0,0-.49414,1.59277,2.24219,2.24219,0,0,0,.499,1.54151,1.69867,1.69867,0,0,0,1.33789.564,1.612,1.612,0,0,0,1.31347-.55322,2.40341,2.40341,0,0,0,.459-1.57373,2.445,2.445,0,0,0-.459-1.58985A1.60391,1.60391,0,0,0,408.29883,129.25Z" transform="translate(-46.1377 -125.99512)"/><path class="c" d="M416.94629,134.1377h-.88086V131.001q0-1.75122-1.27832-1.751a1.38508,1.38508,0,0,0-1.09277.49707,1.8367,1.8367,0,0,0-.43262,1.25391v3.13672h-.88086v-5.5h.88086v.91308h.02148a1.98407,1.98407,0,0,1,1.80469-1.042,1.68089,1.68089,0,0,1,1.37988.583,2.591,2.591,0,0,1,.47852,1.68359Z" transform="translate(-46.1377 -125.99512)"/><path class="c" d="M421.15723,134.084a1.69761,1.69761,0,0,1-.82227.17188q-1.44434,0-1.44434-1.61133v-3.25488h-.94531v-.75195h.94531v-1.34278l.88086-.28467v1.62745h1.38575v.75195h-1.38575v3.09912a1.288,1.288,0,0,0,.1875.78955.75052.75052,0,0,0,.623.23633.92723.92723,0,0,0,.5752-.18262Z" transform="translate(-46.1377 -125.99512)"/><path class="c" d="M426.27051,134.1377h-.88086v-.85938h-.02149a1.84545,1.84545,0,0,1-1.69238.98828,1.80723,1.80723,0,0,1-1.28613-.43506,1.50781,1.50781,0,0,1-.46485-1.15478q0-1.54174,1.81543-1.79395l1.64942-.231q0-1.40186-1.13379-1.40186a2.70945,2.70945,0,0,0-1.79395.67676v-.90235a3.41,3.41,0,0,1,1.86914-.51562q1.93945,0,1.93946,2.05176Zm-.88086-2.78223-1.32715.18262a2.14642,2.14642,0,0,0-.92383.30371.876.876,0,0,0-.31152.7705.84077.84077,0,0,0,.28711.65821,1.11368,1.11368,0,0,0,.76562.25488,1.4131,1.4131,0,0,0,1.082-.459,1.64029,1.64029,0,0,0,.42774-1.16309Z" transform="translate(-46.1377 -125.99512)"/><path class="c" d="M428.38086,127.24121a.55642.55642,0,0,1-.40234-.16113.54329.54329,0,0,1-.167-.4082.5645.5645,0,0,1,.56934-.57471.57134.57134,0,0,1,.41113.16357.57463.57463,0,0,1,0,.814A.566.566,0,0,1,428.38086,127.24121Zm.42969,6.89649h-.88086v-5.5h.88086Z" transform="translate(-46.1377 -125.99512)"/><path class="c" d="M435.15918,134.1377h-.88086V131.001q0-1.75122-1.27832-1.751a1.38508,1.38508,0,0,0-1.09277.49707,1.8415,1.8415,0,0,0-.43262,1.25391v3.13672h-.88086v-5.5h.88086v.91308h.02148a1.98616,1.98616,0,0,1,1.80469-1.042,1.68419,1.68419,0,0,1,1.38086.583,2.59668,2.59668,0,0,1,.47754,1.68359Z" transform="translate(-46.1377 -125.99512)"/><path class="c" d="M441.23926,131.60791h-3.88281a2.05252,2.05252,0,0,0,.49414,1.418,1.702,1.702,0,0,0,1.2998.49951,2.70372,2.70372,0,0,0,1.708-.6123v.82714a3.19263,3.19263,0,0,1-1.918.52637,2.325,2.325,0,0,1-1.83105-.749,3.06694,3.06694,0,0,1-.666-2.1084,3.00513,3.00513,0,0,1,.72754-2.0918,2.334,2.334,0,0,1,1.80762-.80859,2.06681,2.06681,0,0,1,1.66992.69824,2.90743,2.90743,0,0,1,.59082,1.939Zm-.90235-.74658a1.79115,1.79115,0,0,0-.36718-1.187,1.25626,1.25626,0,0,0-1.00782-.42432,1.42175,1.42175,0,0,0-1.05761.4458,2.019,2.019,0,0,0-.53711,1.16553Z" transform="translate(-46.1377 -125.99512)"/><path class="c" d="M445.43945,129.5293a1.07576,1.07576,0,0,0-.666-.17725,1.1231,1.1231,0,0,0-.94239.53174,2.45487,2.45487,0,0,0-.3789,1.45019v2.80372h-.88086v-5.5h.88086v1.1333h.02148a1.9238,1.9238,0,0,1,.5752-.90479,1.3093,1.3093,0,0,1,.86426-.32519,1.431,1.431,0,0,1,.52636.07519Z" transform="translate(-46.1377 -125.99512)"/><path class="c" d="M416.54688,166.794l-2.5293,6.38085q-.67676,1.708-1.90137,1.708a2.02473,2.02473,0,0,1-.57519-.06982v-.78955a1.63551,1.63551,0,0,0,.52148.09668,1.081,1.081,0,0,0,.999-.79492l.44043-1.042-2.14843-5.48925h.97753l1.48731,4.23242c.01855.05371.05566.19336.11328.41894h.03223c.01758-.08593.05371-.22217.10742-.4082l1.5625-4.24316Z" transform="translate(-46.1377 -125.99512)"/><path class="c" d="M419.791,172.42285a2.55283,2.55283,0,0,1-1.94727-.77051,2.85945,2.85945,0,0,1-.72754-2.04394,2.97406,2.97406,0,0,1,.75781-2.16455,2.72212,2.72212,0,0,1,2.0459-.77881,2.46552,2.46552,0,0,1,1.91992.75732,2.99936,2.99936,0,0,1,.69043,2.1001,2.9548,2.9548,0,0,1-.74414,2.1084A2.60486,2.60486,0,0,1,419.791,172.42285Zm.06445-5.0166a1.67708,1.67708,0,0,0-1.34277.57715,2.37428,2.37428,0,0,0-.49415,1.59277,2.2426,2.2426,0,0,0,.5,1.54151,1.69664,1.69664,0,0,0,1.33692.564,1.612,1.612,0,0,0,1.31348-.55322,2.40347,2.40347,0,0,0,.459-1.57373,2.445,2.445,0,0,0-.459-1.58985A1.60394,1.60394,0,0,0,419.85547,167.40625Z" transform="translate(-46.1377 -125.99512)"/><path class="c" d="M428.38477,172.294h-.88086v-.87012h-.02149a1.80856,1.80856,0,0,1-1.69726.999q-1.96583,0-1.96582-2.3418V166.794h.876v3.14746q0,1.74023,1.332,1.74023a1.34547,1.34547,0,0,0,1.06055-.47559,1.81764,1.81764,0,0,0,.416-1.24316V166.794h.88086Z" transform="translate(-46.1377 -125.99512)"/><path class="c" d="M433.03125,167.68555a1.07774,1.07774,0,0,0-.666-.17725,1.12308,1.12308,0,0,0-.94238.53174,2.45487,2.45487,0,0,0-.3789,1.45019V172.294h-.88086v-5.5h.88086v1.1333h.02148a1.915,1.915,0,0,1,.57422-.90479,1.30992,1.30992,0,0,1,.86523-.32519,1.43817,1.43817,0,0,1,.52637.07519Z" transform="translate(-46.1377 -125.99512)"/><path class="c" d="M443.08008,172.294h-.999l-.8164-2.15918H437.999l-.76757,2.15918h-1.00489l2.9541-7.70215h.93457Zm-2.11035-2.97022-1.209-3.28174a3.24932,3.24932,0,0,1-.11816-.51562h-.02149a2.88917,2.88917,0,0,1-.123.51562l-1.19825,3.28174Z" transform="translate(-46.1377 -125.99512)"/><path class="c" d="M445.11621,169.38281V172.294h-.90234V164.5918h2.11621a2.7955,2.7955,0,0,1,1.915.60156,2.14987,2.14987,0,0,1,.67871,1.69726,2.334,2.334,0,0,1-.75391,1.79395,2.88624,2.88624,0,0,1-2.03906.69824Zm0-3.97461v3.15821h.94531a2.11446,2.11446,0,0,0,1.42578-.42676,1.51145,1.51145,0,0,0,.49122-1.20606q0-1.52563-1.80469-1.52539Z" transform="translate(-46.1377 -125.99512)"/><path class="c" d="M451.27637,172.294H450.374V164.5918h.90235Z" transform="translate(-46.1377 -125.99512)"/><path class="c" d="M257.36133,173.19385H256.459v-3.5127h-3.98535v3.5127h-.90234V165.4917h.90234v3.37842H256.459V165.4917h.90235Z" transform="translate(-46.1377 -125.99512)"/><path class="c" d="M263.93555,166.30811h-2.22364v6.88574h-.90234v-6.88574h-2.21826v-.81641h5.34424Z" transform="translate(-46.1377 -125.99512)"/><path class="c" d="M269.91357,166.30811h-2.22363v6.88574h-.90234v-6.88574h-2.21826v-.81641h5.34423Z" transform="translate(-46.1377 -125.99512)"/><path class="c" d="M272.02441,170.28271v2.91114h-.90234V165.4917h2.11621a2.79463,2.79463,0,0,1,1.915.60156,2.14856,2.14856,0,0,1,.6792,1.69727,2.33441,2.33441,0,0,1-.7544,1.79394,2.885,2.885,0,0,1-2.03857.69824Zm0-3.9746v3.1582h.94532a2.11449,2.11449,0,0,0,1.42578-.42676,1.51178,1.51178,0,0,0,.4917-1.20605q0-1.52563-1.80469-1.52539Z" transform="translate(-46.1377 -125.99512)"/><path class="c" d="M283.0459,168.58545a1.07683,1.07683,0,0,0-.666-.17725,1.12308,1.12308,0,0,0-.94238.53174,2.45488,2.45488,0,0,0-.37891,1.4502v2.80371h-.88086v-5.5h.88086v1.1333h.02149a1.91931,1.91931,0,0,1,.57471-.90479,1.30964,1.30964,0,0,1,.86474-.32519,1.43461,1.43461,0,0,1,.52637.07519Z" transform="translate(-46.1377 -125.99512)"/><path class="c" d="M288.42236,170.66406h-3.8833a2.05715,2.05715,0,0,0,.49414,1.418,1.70348,1.70348,0,0,0,1.29981.49951,2.70176,2.70176,0,0,0,1.708-.6123v.82715a3.19111,3.19111,0,0,1-1.91748.52636,2.32608,2.32608,0,0,1-1.83155-.749,3.06936,3.06936,0,0,1-.666-2.1084,3.00734,3.00734,0,0,1,.72754-2.09179,2.334,2.334,0,0,1,1.80761-.8086,2.06847,2.06847,0,0,1,1.67041.69824,2.91,2.91,0,0,1,.59082,1.939Zm-.90234-.74658a1.79391,1.79391,0,0,0-.36768-1.187,1.25521,1.25521,0,0,0-1.00732-.42432,1.42206,1.42206,0,0,0-1.05811.4458,2.02221,2.02221,0,0,0-.53711,1.16553Z" transform="translate(-46.1377 -125.99512)"/><path class="c" d="M294.44873,175.72363h-.88086v-3.47509h-.02148a1.97083,1.97083,0,0,1-1.87989,1.07421,2.06975,2.06975,0,0,1-1.66211-.73828,3.01182,3.01182,0,0,1-.626-2.01172,3.292,3.292,0,0,1,.6875-2.18847,2.28767,2.28767,0,0,1,1.84765-.81934,1.73452,1.73452,0,0,1,1.63282.8916h.02148v-.76269h.88086Zm-.88086-5.00586v-.80029a1.59843,1.59843,0,0,0-.44336-1.144,1.48263,1.48263,0,0,0-1.125-.46729,1.5141,1.5141,0,0,0-1.25683.58789,2.62643,2.62643,0,0,0-.46192,1.65723,2.27137,2.27137,0,0,0,.4458,1.49023,1.42142,1.42142,0,0,0,1.14942.54,1.55012,1.55012,0,0,0,1.23291-.52929A1.96433,1.96433,0,0,0,293.56787,170.71777Z" transform="translate(-46.1377 -125.99512)"/><path class="c" d="M300.6792,173.19385h-.88086v-.87012h-.02148a1.809,1.809,0,0,1-1.69727.999q-1.96582,0-1.96582-2.34179v-3.28711h.87549v3.14746q0,1.74023,1.332,1.74023a1.34716,1.34716,0,0,0,1.061-.47558,1.81763,1.81763,0,0,0,.416-1.24317v-3.16894h.88086Z" transform="translate(-46.1377 -125.99512)"/><path class="c" d="M306.87744,170.66406h-3.8833a2.05715,2.05715,0,0,0,.49414,1.418,1.70348,1.70348,0,0,0,1.29981.49951,2.70173,2.70173,0,0,0,1.708-.6123v.82715a3.19107,3.19107,0,0,1-1.91748.52636,2.32607,2.32607,0,0,1-1.83154-.749,3.06937,3.06937,0,0,1-.666-2.1084,3.00739,3.00739,0,0,1,.72754-2.09179,2.334,2.334,0,0,1,1.80762-.8086,2.06847,2.06847,0,0,1,1.67041.69824,2.91007,2.91007,0,0,1,.59082,1.939Zm-.90234-.74658a1.79391,1.79391,0,0,0-.36768-1.187,1.25522,1.25522,0,0,0-1.00732-.42432,1.42206,1.42206,0,0,0-1.05811.4458,2.02209,2.02209,0,0,0-.53711,1.16553Z" transform="translate(-46.1377 -125.99512)"/><path class="c" d="M307.876,172.99512v-.94532a2.60813,2.60813,0,0,0,1.585.53174q1.16016,0,1.16015-.77343a.66747.66747,0,0,0-.09961-.37305.99131.99131,0,0,0-.26855-.27149,2.07691,2.07691,0,0,0-.39746-.21191q-.22853-.09449-.49121-.19629a6.25931,6.25931,0,0,1-.64258-.293,1.9425,1.9425,0,0,1-.46191-.333,1.251,1.251,0,0,1-.2793-.42138,1.49516,1.49516,0,0,1-.09375-.55322,1.31239,1.31239,0,0,1,.17773-.68458,1.56987,1.56987,0,0,1,.47266-.5,2.19787,2.19787,0,0,1,.67383-.30322,2.99232,2.99232,0,0,1,.78125-.102,3.15716,3.15716,0,0,1,1.27832.24707v.8916a2.48929,2.48929,0,0,0-1.39649-.39746,1.60993,1.60993,0,0,0-.44531.05664,1.09317,1.09317,0,0,0-.3418.15821.72972.72972,0,0,0-.21972.24414.64707.64707,0,0,0-.07813.31445.75584.75584,0,0,0,.07813.35986.78762.78762,0,0,0,.22851.25782,1.72771,1.72771,0,0,0,.36524.2041q.21387.09155.48828.19873a6.85282,6.85282,0,0,1,.65527.28711,2.26251,2.26251,0,0,1,.49414.333,1.2967,1.2967,0,0,1,.31446.42725,1.37916,1.37916,0,0,1,.11035.57471,1.35457,1.35457,0,0,1-.18067.709,1.523,1.523,0,0,1-.48047.49951,2.20569,2.20569,0,0,1-.69238.29541,3.42275,3.42275,0,0,1-.82226.09668A3.12515,3.12515,0,0,1,307.876,172.99512Z" transform="translate(-46.1377 -125.99512)"/><path class="c" d="M315.42773,173.14014a1.69355,1.69355,0,0,1-.82128.17187q-1.4458,0-1.44532-1.61133V168.4458h-.94531v-.75195h.94531v-1.34278l.88086-.28466v1.62744h1.38574v.75195H314.042v3.09912a1.2806,1.2806,0,0,0,.18848.78955.74924.74924,0,0,0,.623.23633.92625.92625,0,0,0,.57421-.18262Z" transform="translate(-46.1377 -125.99512)"/><path class="c" d="M316.27148,172.99512v-.94532a2.60538,2.60538,0,0,0,1.584.53174q1.16016,0,1.16015-.77343a.6752.6752,0,0,0-.09863-.37305.99131.99131,0,0,0-.26855-.27149,2.1068,2.1068,0,0,0-.39746-.21191q-.22852-.09449-.49219-.19629a6.333,6.333,0,0,1-.6416-.293,1.92307,1.92307,0,0,1-.46192-.333,1.23668,1.23668,0,0,1-.27929-.42138,1.49516,1.49516,0,0,1-.09375-.55322,1.31185,1.31185,0,0,1,.17675-.68458,1.58069,1.58069,0,0,1,.47266-.5,2.21411,2.21411,0,0,1,.67481-.30322,2.99232,2.99232,0,0,1,.78125-.102,3.16048,3.16048,0,0,1,1.27832.24707v.8916a2.49156,2.49156,0,0,0-1.39649-.39746,1.61712,1.61712,0,0,0-.44629.05664,1.08749,1.08749,0,0,0-.34082.15821.72961.72961,0,0,0-.21972.24414.63642.63642,0,0,0-.07813.31445.74445.74445,0,0,0,.07813.35986.79525.79525,0,0,0,.22753.25782,1.77825,1.77825,0,0,0,.36524.2041q.21532.09155.48926.19873a6.96344,6.96344,0,0,1,.65527.28711,2.28638,2.28638,0,0,1,.49414.333,1.32444,1.32444,0,0,1,.31445.42725,1.37933,1.37933,0,0,1,.10938.57471,1.35417,1.35417,0,0,1-.17969.709,1.543,1.543,0,0,1-.48047.49951,2.21131,2.21131,0,0,1-.69336.29541,3.41464,3.41464,0,0,1-.82129.09668A3.11967,3.11967,0,0,1,316.27148,172.99512Z" transform="translate(-46.1377 -125.99512)"/><path class="c" d="M370.292,251.79492h-4.56543v-.63916H370.292Z" transform="translate(-46.1377 -125.99512)"/><path class="c" d="M374.85742,251.79492H370.292v-.63916h4.56543Z" transform="translate(-46.1377 -125.99512)"/><path class="c" d="M379.68555,250.19971h-.88086v-.85938h-.02149a1.844,1.844,0,0,1-1.6914.98828,1.80726,1.80726,0,0,1-1.28614-.43506,1.50436,1.50436,0,0,1-.46484-1.15478q0-1.54174,1.81543-1.79395l1.64844-.231q0-1.40185-1.13281-1.40186a2.70576,2.70576,0,0,0-1.79395.67676v-.90234a3.40536,3.40536,0,0,1,1.86914-.51563q1.938,0,1.93848,2.05176Zm-.88086-2.78223-1.32617.18262a2.14177,2.14177,0,0,0-.92383.30371.8735.8735,0,0,0-.31153.77051.84079.84079,0,0,0,.28711.6582,1.11032,1.11032,0,0,0,.76563.25488,1.41456,1.41456,0,0,0,1.082-.459,1.6396,1.6396,0,0,0,.42676-1.16309Z" transform="translate(-46.1377 -125.99512)"/><path class="c" d="M386.04,250.19971h-.88086v-.93457h-.02148a2.03411,2.03411,0,0,1-1.89063,1.06347,2.05528,2.05528,0,0,1-1.65723-.73828,3.03354,3.03354,0,0,1-.62011-2.01172,3.29226,3.29226,0,0,1,.6875-2.186,2.26609,2.26609,0,0,1,1.831-.82178,1.7638,1.7638,0,0,1,1.64942.8916h.02148v-3.40527H386.04Zm-.88086-2.48682v-.811a1.57671,1.57671,0,0,0-.44043-1.12793,1.47714,1.47714,0,0,0-1.11719-.46192,1.52019,1.52019,0,0,0-1.26758.59082,2.585,2.585,0,0,0-.46191,1.63281,2.3244,2.3244,0,0,0,.44336,1.501,1.44645,1.44645,0,0,0,1.18945.55078,1.50607,1.50607,0,0,0,1.19532-.53174A1.98361,1.98361,0,0,0,385.15918,247.71289Z" transform="translate(-46.1377 -125.99512)"/><path class="c" d="M395.63281,250.19971H394.752V247.0415a2.37745,2.37745,0,0,0-.28222-1.32129,1.06929,1.06929,0,0,0-.94825-.4082,1.17206,1.17206,0,0,0-.958.51563,1.96974,1.96974,0,0,0-.39551,1.23535v3.13672h-.88086v-3.26563q0-1.62231-1.251-1.62207a1.15824,1.15824,0,0,0-.95605.48633,2.00626,2.00626,0,0,0-.376,1.26465v3.13672h-.88086v-5.5h.88086v.87011h.02149a1.86723,1.86723,0,0,1,1.708-.999,1.59046,1.59046,0,0,1,1.55762,1.13867,1.9621,1.9621,0,0,1,1.82617-1.13867q1.81494,0,1.81543,2.23975Z" transform="translate(-46.1377 -125.99512)"/><path class="c" d="M397.749,243.30322a.5587.5587,0,0,1-.40332-.16113.54612.54612,0,0,1-.166-.4082.5629.5629,0,0,1,.56933-.57471.57134.57134,0,0,1,.41114.16357.57466.57466,0,0,1,0,.814A.566.566,0,0,1,397.749,243.30322Zm.42969,6.89649h-.88086v-5.5h.88086Z" transform="translate(-46.1377 -125.99512)"/><path class="c" d="M404.52734,250.19971h-.88086V247.063q0-1.75122-1.27832-1.751a1.3851,1.3851,0,0,0-1.09277.49707,1.83678,1.83678,0,0,0-.43262,1.25391v3.13672h-.88086v-5.5h.88086v.91308h.02149a1.98407,1.98407,0,0,1,1.80469-1.042,1.68092,1.68092,0,0,1,1.37988.583,2.5911,2.5911,0,0,1,.47851,1.68359Z" transform="translate(-46.1377 -125.99512)"/><path class="c" d="M413.62012,247.66992H409.7373a2.05255,2.05255,0,0,0,.49415,1.418,1.702,1.702,0,0,0,1.2998.49951,2.70372,2.70372,0,0,0,1.708-.6123v.82715a3.19269,3.19269,0,0,1-1.918.52636,2.325,2.325,0,0,1-1.83106-.749,3.067,3.067,0,0,1-.666-2.1084,3.00513,3.00513,0,0,1,.72754-2.0918,2.334,2.334,0,0,1,1.80762-.80859,2.06681,2.06681,0,0,1,1.66992.69824,2.90745,2.90745,0,0,1,.59082,1.939Zm-.90235-.74658a1.79115,1.79115,0,0,0-.36718-1.187,1.25626,1.25626,0,0,0-1.00782-.42432,1.42173,1.42173,0,0,0-1.05761.4458,2.019,2.019,0,0,0-.53711,1.16553Z" transform="translate(-46.1377 -125.99512)"/><path class="c" d="M419.51758,250.19971h-.88086V247.063q0-1.75122-1.27832-1.751a1.38512,1.38512,0,0,0-1.09278.49707,1.84158,1.84158,0,0,0-.43261,1.25391v3.13672h-.88086v-5.5h.88086v.91308h.02148a1.98616,1.98616,0,0,1,1.80469-1.042,1.68422,1.68422,0,0,1,1.38086.583,2.59669,2.59669,0,0,1,.47754,1.68359Z" transform="translate(-46.1377 -125.99512)"/><path class="c" d="M425.87207,250.19971h-.88086v-.93457h-.02148a2.03411,2.03411,0,0,1-1.89063,1.06347,2.05526,2.05526,0,0,1-1.65722-.73828,3.03349,3.03349,0,0,1-.62012-2.01172,3.29226,3.29226,0,0,1,.6875-2.186,2.2661,2.2661,0,0,1,1.83105-.82178,1.7638,1.7638,0,0,1,1.64942.8916h.02148v-3.40527h.88086Zm-.88086-2.48682v-.811a1.57671,1.57671,0,0,0-.44043-1.12793,1.47711,1.47711,0,0,0-1.11719-.46192,1.52016,1.52016,0,0,0-1.26757.59082,2.585,2.585,0,0,0-.46192,1.63281,2.3244,2.3244,0,0,0,.44336,1.501,1.44645,1.44645,0,0,0,1.18945.55078,1.50606,1.50606,0,0,0,1.19532-.53174A1.98361,1.98361,0,0,0,424.99121,247.71289Z" transform="translate(-46.1377 -125.99512)"/><path class="c" d="M428.55762,249.40479h-.02149v3.3247h-.88086v-8.02978h.88086v.96679h.02149a2.08153,2.08153,0,0,1,1.90136-1.0957,2.01342,2.01342,0,0,1,1.65918.73828,3.06036,3.06036,0,0,1,.59668,1.97949,3.40356,3.40356,0,0,1-.67187,2.21,2.23333,2.23333,0,0,1-1.83692.83007A1.84033,1.84033,0,0,1,428.55762,249.40479Zm-.02149-2.21827v.76807a1.63229,1.63229,0,0,0,.44336,1.15723,1.58,1.58,0,0,0,2.37891-.13672,2.80769,2.80769,0,0,0,.4541-1.70264,2.21542,2.21542,0,0,0-.4248-1.43945,1.40384,1.40384,0,0,0-1.14942-.521,1.562,1.562,0,0,0-1.23535.53418A1.9629,1.9629,0,0,0,428.53613,247.18652Z" transform="translate(-46.1377 -125.99512)"/><path class="c" d="M436.4209,250.32861a2.5514,2.5514,0,0,1-1.94727-.7705,2.85521,2.85521,0,0,1-.72754-2.04395,2.97361,2.97361,0,0,1,.75684-2.16455,2.7244,2.7244,0,0,1,2.04687-.77881,2.467,2.467,0,0,1,1.91993.75732,3.004,3.004,0,0,1,.69043,2.1001,2.95485,2.95485,0,0,1-.74414,2.1084A2.60781,2.60781,0,0,1,436.4209,250.32861Zm.06445-5.0166a1.67441,1.67441,0,0,0-1.34277.57715,2.36921,2.36921,0,0,0-.49414,1.59277,2.24219,2.24219,0,0,0,.499,1.54151,1.69868,1.69868,0,0,0,1.33789.564,1.612,1.612,0,0,0,1.31348-.55322,2.40347,2.40347,0,0,0,.459-1.57373,2.445,2.445,0,0,0-.459-1.58984A1.60389,1.60389,0,0,0,436.48535,245.312Z" transform="translate(-46.1377 -125.99512)"/><path class="c" d="M441.01855,243.30322a.5587.5587,0,0,1-.40332-.16113.54612.54612,0,0,1-.166-.4082.5629.5629,0,0,1,.56933-.57471.57134.57134,0,0,1,.41114.16357.57466.57466,0,0,1,0,.814A.566.566,0,0,1,441.01855,243.30322Zm.42969,6.89649h-.88086v-5.5h.88086Z" transform="translate(-46.1377 -125.99512)"/><path class="c" d="M447.79688,250.19971H446.916V247.063q0-1.75122-1.27832-1.751a1.38512,1.38512,0,0,0-1.09278.49707,1.83678,1.83678,0,0,0-.43262,1.25391v3.13672h-.88085v-5.5h.88085v.91308h.02149a1.98407,1.98407,0,0,1,1.80469-1.042,1.68092,1.68092,0,0,1,1.37988.583,2.591,2.591,0,0,1,.47852,1.68359Z" transform="translate(-46.1377 -125.99512)"/><path class="c" d="M452.00781,250.146a1.69769,1.69769,0,0,1-.82226.17187q-1.44433,0-1.44434-1.61133v-3.25488h-.94531v-.75195h.94531v-1.34278l.88086-.28466v1.62744h1.38574v.75195h-1.38574v3.09912a1.288,1.288,0,0,0,.1875.78955.75052.75052,0,0,0,.623.23633.9272.9272,0,0,0,.57519-.18262Z" transform="translate(-46.1377 -125.99512)"/><path class="b" d="M131.3833,260.87646l-1.60889,5.45606h-1.29492l-.99072-3.69775a2.34632,2.34632,0,0,1-.07471-.4795h-.02148a2.18131,2.18131,0,0,1-.0957.46875l-1.07618,3.7085h-1.26806l-1.604-5.45606h1.27881l.99121,3.93213a2.35107,2.35107,0,0,1,.064.46875h.03711a2.53223,2.53223,0,0,1,.08545-.47949l1.10253-3.92139h1.16163l.98046,3.94825a2.78489,2.78489,0,0,1,.06934.46875h.03711a2.48861,2.48861,0,0,1,.08008-.46875l.96972-3.94825Z" transform="translate(-46.1377 -125.99512)"/><path class="b" d="M132.92334,259.731a.74237.74237,0,0,1-.51953-.19727.64892.64892,0,0,1-.21533-.50049.66645.66645,0,0,1,.21533-.50634.7342.7342,0,0,1,.51953-.20264.757.757,0,0,1,.5332.20264.66224.66224,0,0,1,.21826.50634.65269.65269,0,0,1-.21826.49268A.7506.7506,0,0,1,132.92334,259.731Zm.61279,6.60156h-1.23584v-5.45606h1.23584Z" transform="translate(-46.1377 -125.99512)"/><path class="b" d="M138.31543,262.0542a1.0235,1.0235,0,0,0-.64453-.17578,1.10417,1.10417,0,0,0-.91651.49512,2.21645,2.21645,0,0,0-.36767,1.34814v2.61084h-1.23584v-5.45606h1.23584V262.001h.02148a1.89817,1.89817,0,0,1,.55664-.898,1.25727,1.25727,0,0,1,.83936-.32227,1.04224,1.04224,0,0,1,.51123.10108Z" transform="translate(-46.1377 -125.99512)"/><path class="b" d="M143.71289,263.94043h-3.71875a1.56994,1.56994,0,0,0,.46631,1.1665,1.732,1.732,0,0,0,1.22266.41016,2.69464,2.69464,0,0,0,1.60351-.522v.99658a3.66377,3.66377,0,0,1-1.97119.46875,2.441,2.441,0,0,1-1.88867-.74316,2.97312,2.97312,0,0,1-.68457-2.09131,2.90464,2.90464,0,0,1,.7539-2.0752,2.46509,2.46509,0,0,1,1.87256-.80224,2.14946,2.14946,0,0,1,1.73145.71923,2.98525,2.98525,0,0,1,.61279,1.99805Zm-1.19336-.874a1.59117,1.59117,0,0,0-.31445-1.03614,1.05016,1.05016,0,0,0-.85254-.3706,1.1992,1.1992,0,0,0-.90283.38916,1.77465,1.77465,0,0,0-.45557,1.01758Z" transform="translate(-46.1377 -125.99512)"/><path class="b" d="M153.04785,266.33252h-1.23633v-2.97314a2.40829,2.40829,0,0,0-.24218-1.24122.89146.89146,0,0,0-.81788-.38378.98575.98575,0,0,0-.82324.48486,1.97838,1.97838,0,0,0-.33838,1.16162v2.95166h-1.24121V263.2583q0-1.52417-1.07666-1.52392a.97184.97184,0,0,0-.82324.458,2.02191,2.02191,0,0,0-.32227,1.18848v2.95166h-1.23584v-5.45606h1.23584v.86329h.02149a1.88969,1.88969,0,0,1,1.7207-.99121,1.62341,1.62341,0,0,1,.98877.312,1.55246,1.55246,0,0,1,.57813.81787,1.94648,1.94648,0,0,1,1.81152-1.12988q1.8003,0,1.80078,2.22216Z" transform="translate(-46.1377 -125.99512)"/><path class="b" d="M156.97461,266.46045a2.70375,2.70375,0,0,1-2.0166-.76465,2.76083,2.76083,0,0,1-.75391-2.02734,2.69364,2.69364,0,0,1,2.90381-2.91992,2.6178,2.6178,0,0,1,1.99268.75146,2.90378,2.90378,0,0,1,.71386,2.083,2.85937,2.85937,0,0,1-.77,2.09131A2.76522,2.76522,0,0,1,156.97461,266.46045Zm.05859-4.72607a1.41038,1.41038,0,0,0-1.1455.50634,2.11845,2.11845,0,0,0-.4209,1.396,1.99611,1.99611,0,0,0,.42627,1.35058,1.431,1.431,0,0,0,1.14013.49268,1.359,1.359,0,0,0,1.12159-.48486,2.14807,2.14807,0,0,0,.3916-1.37989,2.18085,2.18085,0,0,0-.3916-1.39062A1.35293,1.35293,0,0,0,157.0332,261.73438Z" transform="translate(-46.1377 -125.99512)"/><path class="b" d="M164.97705,266.082a3.04572,3.04572,0,0,1-1.55029.37842,2.62565,2.62565,0,0,1-1.96094-.75928,2.69086,2.69086,0,0,1-.74561-1.96875,2.96085,2.96085,0,0,1,.80176-2.166,2.86825,2.86825,0,0,1,2.14453-.81787,3.13346,3.13346,0,0,1,1.31592.26123v1.15087a1.99305,1.99305,0,0,0-1.21484-.42626,1.68868,1.68868,0,0,0-1.28418.53027,1.93747,1.93747,0,0,0-.50049,1.38769,1.84951,1.84951,0,0,0,.47119,1.33741,1.67342,1.67342,0,0,0,1.26563.49023,1.97823,1.97823,0,0,0,1.25732-.47412Z" transform="translate(-46.1377 -125.99512)"/><path class="b" d="M171.15234,266.33252h-1.5664l-2.12061-2.62158h-.02148v2.62158h-1.24121v-8.07764h1.24121v5.12061h.02148l2.00342-2.499h1.48633l-2.25391,2.63233Z" transform="translate(-46.1377 -125.99512)"/><path class="b" d="M174.125,263.80713h-2.90918V262.896H174.125Z" transform="translate(-46.1377 -125.99512)"/><path class="b" d="M179.544,266.082a3.04579,3.04579,0,0,1-1.5503.37842,2.62565,2.62565,0,0,1-1.96094-.75928,2.69085,2.69085,0,0,1-.7456-1.96875,2.96085,2.96085,0,0,1,.80176-2.166,2.86825,2.86825,0,0,1,2.14453-.81787,3.13349,3.13349,0,0,1,1.31592.26123v1.15087a1.9931,1.9931,0,0,0-1.21485-.42626,1.6887,1.6887,0,0,0-1.28418.53027,1.93751,1.93751,0,0,0-.50049,1.38769,1.84948,1.84948,0,0,0,.4712,1.33741,1.67339,1.67339,0,0,0,1.26562.49023,1.97826,1.97826,0,0,0,1.25733-.47412Z" transform="translate(-46.1377 -125.99512)"/><path class="b" d="M184.957,266.33252H183.7583V265.48h-.021a1.80565,1.80565,0,0,1-1.65722.98047,1.74534,1.74534,0,0,1-1.26026-.437,1.52791,1.52791,0,0,1-.45556-1.15625q0-1.54469,1.77978-1.80078l1.61963-.229q0-1.16674-1.10791-1.167a2.63062,2.63062,0,0,0-1.7583.67139v-1.08155a3.8299,3.8299,0,0,1,1.99268-.51171,1.81327,1.81327,0,0,1,2.06689,2.03564Zm-1.19336-2.68018-1.14551.16016a1.81337,1.81337,0,0,0-.80175.2583.75388.75388,0,0,0-.269.66309.72728.72728,0,0,0,.24756.56787.96206.96206,0,0,0,.66358.2207,1.2243,1.2243,0,0,0,.93505-.397,1.40691,1.40691,0,0,0,.37012-.999Z" transform="translate(-46.1377 -125.99512)"/><path class="b" d="M187.72266,265.52783h-.02149v3.31446h-1.23584v-7.96583h1.23584v.959h.02149a2.02551,2.02551,0,0,1,1.854-1.08691,1.9548,1.9548,0,0,1,1.62012.73,3.06453,3.06453,0,0,1,.58056,1.96093,3.39877,3.39877,0,0,1-.65527,2.18457,2.16819,2.16819,0,0,1-1.79053.82032A1.78662,1.78662,0,0,1,187.72266,265.52783Zm-.03223-2.15234v.67676a1.44136,1.44136,0,0,0,.38135,1.0122,1.34445,1.34445,0,0,0,2.0459-.12011,2.49,2.49,0,0,0,.3916-1.49414,1.96188,1.96188,0,0,0-.36524-1.26026,1.19923,1.19923,0,0,0-.98828-.45556,1.33177,1.33177,0,0,0-1.063.46874A1.738,1.738,0,0,0,187.69043,263.37549Z" transform="translate(-46.1377 -125.99512)"/><path class="b" d="M195.917,266.27393a2.1452,2.1452,0,0,1-.95361.18115q-1.58788,0-1.58789-1.52393v-3.085h-.91113v-.96973h.91113v-1.26269l1.23633-.35156v1.61425H195.917v.96973h-1.30517v2.728a1.07607,1.07607,0,0,0,.17578.69287.73073.73073,0,0,0,.58594.20752.84834.84834,0,0,0,.54345-.18115Z" transform="translate(-46.1377 -125.99512)"/><path class="b" d="M201.17041,266.33252h-1.19873V265.48h-.021a1.80566,1.80566,0,0,1-1.65722.98047,1.74531,1.74531,0,0,1-1.26026-.437,1.52791,1.52791,0,0,1-.45556-1.15625q0-1.54469,1.77978-1.80078l1.61963-.229q0-1.16674-1.10791-1.167a2.63062,2.63062,0,0,0-1.7583.67139v-1.08155a3.8299,3.8299,0,0,1,1.99268-.51171,1.81327,1.81327,0,0,1,2.06689,2.03564Zm-1.19336-2.68018-1.14551.16016a1.81332,1.81332,0,0,0-.80175.2583.75388.75388,0,0,0-.269.66309.72728.72728,0,0,0,.24756.56787.96206.96206,0,0,0,.66358.2207,1.2243,1.2243,0,0,0,.93505-.397,1.40691,1.40691,0,0,0,.37012-.999Z" transform="translate(-46.1377 -125.99512)"/><path class="b" d="M203.30176,259.731a.74237.74237,0,0,1-.51953-.19727.64893.64893,0,0,1-.21534-.50049.66646.66646,0,0,1,.21534-.50634.7342.7342,0,0,1,.51953-.20264.75707.75707,0,0,1,.5332.20264.66224.66224,0,0,1,.21826.50634.65269.65269,0,0,1-.21826.49268A.75061.75061,0,0,1,203.30176,259.731Zm.61279,6.60156h-1.23584v-5.45606h1.23584Z" transform="translate(-46.1377 -125.99512)"/><path class="b" d="M210.38818,266.33252h-1.23584V263.2583q0-1.5293-1.08154-1.5293a1.18062,1.18062,0,0,0-.93262.42383,1.57,1.57,0,0,0-.36767,1.06787v3.11182H205.5293v-5.45606h1.24121v.90577h.02148a1.94451,1.94451,0,0,1,1.769-1.03369,1.6478,1.6478,0,0,1,1.35839.57812,2.59742,2.59742,0,0,1,.46875,1.67041Z" transform="translate(-46.1377 -125.99512)"/><path class="b" d="M482.94922,205.44434l-2.11133,7.70214h-1.44434l-1.46679-5.3872a3.66077,3.66077,0,0,1-.11231-.752H477.793a3.73678,3.73678,0,0,1-.12891.74122l-1.47168,5.39794h-1.47754l-2.15332-7.70214h1.40137l1.39649,5.63964a4.02394,4.02394,0,0,1,.10742.74122h.02734a4.14571,4.14571,0,0,1,.15039-.74122l1.5791-5.63964h1.31543L480,211.127a4.39131,4.39131,0,0,1,.11328.6875h.02149a4.23906,4.23906,0,0,1,.123-.709l1.37012-5.66113Z" transform="translate(-46.1377 -125.99512)"/><path class="b" d="M484.50684,206.4917a.74846.74846,0,0,1-.52344-.19873.65225.65225,0,0,1-.21778-.50488.66939.66939,0,0,1,.21778-.51026.736.736,0,0,1,.52344-.2041.76217.76217,0,0,1,.53711.2041.66773.66773,0,0,1,.21972.51026.65919.65919,0,0,1-.21972.49707A.75785.75785,0,0,1,484.50684,206.4917Zm.61718,6.65478h-1.24609v-5.5H485.124Z" transform="translate(-46.1377 -125.99512)"/><path class="b" d="M489.94238,208.8335a1.03375,1.03375,0,0,0-.65039-.17725,1.11333,1.11333,0,0,0-.92383.49951,2.234,2.234,0,0,0-.37011,1.35889v2.63183H486.752v-5.5h1.2461v1.13331h.02148a1.91126,1.91126,0,0,1,.56055-.90479,1.26892,1.26892,0,0,1,.84668-.3252,1.05189,1.05189,0,0,1,.51562.10206Z" transform="translate(-46.1377 -125.99512)"/><path class="b" d="M495.38281,210.73486h-3.749a1.587,1.587,0,0,0,.46973,1.17627,1.75,1.75,0,0,0,1.23339.41358,2.71564,2.71564,0,0,0,1.61621-.52637v1.00439a3.69269,3.69269,0,0,1-1.9873.47266,2.46441,2.46441,0,0,1-1.9043-.749,2.99925,2.99925,0,0,1-.68945-2.1084,2.92839,2.92839,0,0,1,.75977-2.0918,2.48538,2.48538,0,0,1,1.88769-.80859,2.16917,2.16917,0,0,1,1.74609.7251,3.01377,3.01377,0,0,1,.61719,2.01416Zm-1.20312-.88086a1.60394,1.60394,0,0,0-.31641-1.04443,1.059,1.059,0,0,0-.85937-.37353,1.21122,1.21122,0,0,0-.91114.39208,1.79846,1.79846,0,0,0-.459,1.02588Z" transform="translate(-46.1377 -125.99512)"/><path class="b" d="M504.98145,213.14648h-1.26758v-4.98437q0-.6123.07519-1.49854h-.02148a5.12889,5.12889,0,0,1-.21.7251l-2.29883,5.75781h-.88086l-2.30371-5.71484a5.34608,5.34608,0,0,1-.2041-.76807h-.02149q.04248.46216.043,1.50928v4.97363H496.71v-7.70214h1.79883l2.02539,5.12939a7.7908,7.7908,0,0,1,.30078.88086h.02637q.19922-.60718.32226-.90234l2.0625-5.10791h1.73536Z" transform="translate(-46.1377 -125.99512)"/><path class="b" d="M509.17578,213.27539a2.72366,2.72366,0,0,1-2.03223-.77051,2.78517,2.78517,0,0,1-.76074-2.04394,2.7162,2.7162,0,0,1,2.92774-2.94336,2.63956,2.63956,0,0,1,2.00879.75732,2.92718,2.92718,0,0,1,.71972,2.1001,2.88262,2.88262,0,0,1-.77636,2.1084A2.78927,2.78927,0,0,1,509.17578,213.27539Zm.05957-4.76416a1.423,1.423,0,0,0-1.15527.51025,2.14,2.14,0,0,0-.42383,1.40723,2.00772,2.00772,0,0,0,.42969,1.36133,1.441,1.441,0,0,0,1.14941.49707,1.37131,1.37131,0,0,0,1.13086-.48877,2.16607,2.16607,0,0,0,.39453-1.39111,2.19983,2.19983,0,0,0-.39453-1.40186A1.36386,1.36386,0,0,0,509.23535,208.51123Z" transform="translate(-46.1377 -125.99512)"/><path class="b" d="M517.24316,212.894a3.06943,3.06943,0,0,1-1.5625.38135,2.64475,2.64475,0,0,1-1.97656-.76562,2.7071,2.7071,0,0,1-.752-1.98438,2.98813,2.98813,0,0,1,.80762-2.18359,2.89186,2.89186,0,0,1,2.16211-.82422,3.16062,3.16062,0,0,1,1.32714.26318v1.16016a2.01107,2.01107,0,0,0-1.22461-.42969,1.70306,1.70306,0,0,0-1.29492.53467,1.9555,1.9555,0,0,0-.50488,1.39892,1.86155,1.86155,0,0,0,.47559,1.34815,1.68622,1.68622,0,0,0,1.27539.49414,1.99128,1.99128,0,0,0,1.26757-.478Z" transform="translate(-46.1377 -125.99512)"/><path class="b" d="M523.46875,213.14648h-1.5791l-2.1377-2.64257h-.02148v2.64257h-1.25195v-8.14257h1.25195v5.16162h.02148l2.01953-2.519h1.49805l-2.27148,2.65332Z" transform="translate(-46.1377 -125.99512)"/><path class="b" d="M474.93848,226.1748V225.02a2.48453,2.48453,0,0,0,1.541.53174q1.12794,0,1.12793-.666a.523.523,0,0,0-.09668-.31933.91752.91752,0,0,0-.26074-.23389,2.01055,2.01055,0,0,0-.38672-.18262q-.22266-.08056-.49609-.18261a5.33911,5.33911,0,0,1-.61035-.28467,1.84754,1.84754,0,0,1-.45118-.34082,1.29732,1.29732,0,0,1-.2705-.43262,1.57708,1.57708,0,0,1-.0918-.564,1.29639,1.29639,0,0,1,.18848-.70068,1.62444,1.62444,0,0,1,.50488-.51074,2.434,2.434,0,0,1,.71973-.31152,3.31488,3.31488,0,0,1,.832-.1045,3.78424,3.78424,0,0,1,1.36425.231v1.09033a2.29718,2.29718,0,0,0-1.332-.39746,1.73823,1.73823,0,0,0-.42675.04834,1.11363,1.11363,0,0,0-.3252.13428.65619.65619,0,0,0-.209.207.48582.48582,0,0,0-.0752.26563.56254.56254,0,0,0,.0752.30078.67942.67942,0,0,0,.22265.21777,1.96737,1.96737,0,0,0,.35449.17187q.20655.07764.47559.16895a6.90807,6.90807,0,0,1,.63574.29541,2.13743,2.13743,0,0,1,.48145.34131,1.33383,1.33383,0,0,1,.30566.44043,1.48165,1.48165,0,0,1,.10742.59326,1.35621,1.35621,0,0,1-.19336.73047,1.61489,1.61489,0,0,1-.51562.51562,2.40128,2.40128,0,0,1-.74414.30323,3.84859,3.84859,0,0,1-.88867.09961A3.74019,3.74019,0,0,1,474.93848,226.1748Z" transform="translate(-46.1377 -125.99512)"/><path class="b" d="M480.65332,219.69189a.74843.74843,0,0,1-.52344-.19873.65226.65226,0,0,1-.21777-.50488.66941.66941,0,0,1,.21777-.51025.736.736,0,0,1,.52344-.2041.76213.76213,0,0,1,.53711.2041.66773.66773,0,0,1,.21973.51025.65918.65918,0,0,1-.21973.49707A.75777.75777,0,0,1,480.65332,219.69189Zm.61719,6.65479h-1.2461v-5.5h1.2461Z" transform="translate(-46.1377 -125.99512)"/><path class="b" d="M491.12109,226.34668H489.875v-2.99707a2.42727,2.42727,0,0,0-.24414-1.25147.89869.89869,0,0,0-.82422-.38671.99414.99414,0,0,0-.83008.48877,1.993,1.993,0,0,0-.34082,1.17089v2.97559h-1.252v-3.09912q0-1.53589-1.085-1.53613a.9797.9797,0,0,0-.83008.46191,2.04254,2.04254,0,0,0-.32422,1.19775v2.97559h-1.24609v-5.5h1.24609v.87012h.02149a1.90487,1.90487,0,0,1,1.73437-.999,1.63031,1.63031,0,0,1,.99609.31446,1.55768,1.55768,0,0,1,.583.82422,1.96308,1.96308,0,0,1,1.82617-1.13868q1.81641,0,1.81543,2.23975Z" transform="translate(-46.1377 -125.99512)"/><path class="b" d="M497.4375,226.34668h-1.24609v-.87012h-.02149a1.793,1.793,0,0,1-1.68652.999q-1.94972,0-1.94922-2.3418v-3.28711h1.24609v3.1582q0,1.48242,1.14356,1.48242a1.15445,1.15445,0,0,0,.91015-.4082,1.56326,1.56326,0,0,0,.35743-1.06885v-3.16357h1.24609Z" transform="translate(-46.1377 -125.99512)"/><path class="b" d="M500.31152,226.34668h-1.25195V218.2041h1.25195Z" transform="translate(-46.1377 -125.99512)"/><path class="b" d="M506.15527,226.34668h-1.209v-.85938h-.02149a1.81922,1.81922,0,0,1-1.66992.98829,1.75956,1.75956,0,0,1-1.2705-.44043,1.53824,1.53824,0,0,1-.459-1.16553q0-1.55787,1.79395-1.81543l1.63281-.231q0-1.17627-1.11719-1.17627a2.65377,2.65377,0,0,0-1.77246.67676V221.2334a3.86362,3.86362,0,0,1,2.00879-.51563,1.82822,1.82822,0,0,1,2.084,2.05176Zm-1.20312-2.70166-1.15527.16113a1.83835,1.83835,0,0,0-.8086.26026.762.762,0,0,0-.27051.66894.73374.73374,0,0,0,.249.57227.96932.96932,0,0,0,.66894.22265,1.23075,1.23075,0,0,0,.94238-.40039,1.41738,1.41738,0,0,0,.374-1.00683Z" transform="translate(-46.1377 -125.99512)"/><path class="b" d="M510.5752,226.2876a2.15858,2.15858,0,0,1-.96094.18261q-1.60107,0-1.60059-1.53613v-3.10986h-.91894v-.97754h.91894v-1.27295l1.2461-.35449v1.62744h1.31543v.97754h-1.31543v2.75a1.08417,1.08417,0,0,0,.17675.69824.73627.73627,0,0,0,.59082.20947.8551.8551,0,0,0,.54786-.18261Z" transform="translate(-46.1377 -125.99512)"/><path class="b" d="M514.02344,226.47559a2.72364,2.72364,0,0,1-2.03223-.77051,2.78518,2.78518,0,0,1-.76074-2.04395,2.7162,2.7162,0,0,1,2.92773-2.94336,2.63952,2.63952,0,0,1,2.00879.75733,2.92717,2.92717,0,0,1,.71973,2.1001,2.88256,2.88256,0,0,1-.77637,2.10839A2.78922,2.78922,0,0,1,514.02344,226.47559Zm.05957-4.76416a1.423,1.423,0,0,0-1.15528.51025,2.14,2.14,0,0,0-.42382,1.40723,2.00767,2.00767,0,0,0,.42968,1.36132,1.441,1.441,0,0,0,1.14942.49707,1.37132,1.37132,0,0,0,1.13086-.48876,2.16618,2.16618,0,0,0,.39453-1.39112,2.19986,2.19986,0,0,0-.39453-1.40185A1.36387,1.36387,0,0,0,514.083,221.71143Z" transform="translate(-46.1377 -125.99512)"/><path class="b" d="M521.34473,222.03369a1.03384,1.03384,0,0,0-.65039-.17724,1.11332,1.11332,0,0,0-.92383.49951,2.23392,2.23392,0,0,0-.37012,1.35888v2.63184H518.1543v-5.5h1.24609V221.98h.02149a1.91124,1.91124,0,0,1,.56054-.90478,1.26894,1.26894,0,0,1,.84668-.3252,1.05206,1.05206,0,0,1,.51563.102Z" transform="translate(-46.1377 -125.99512)"/><line class="d" x1="180.6174" y1="137.02759" x2="274.61691" y2="137.02759"/><polygon class="e" points="272.001 140.863 286.311 137.028 272.001 133.193 272.001 140.863"/></svg>
