<?xml version="1.0" encoding="UTF-8" standalone="no"?><svg xmlns="http://www.w3.org/2000/svg" xmlns:cc="http://creativecommons.org/ns#" xmlns:dc="http://purl.org/dc/elements/1.1/" xmlns:rdf="http://www.w3.org/1999/02/22-rdf-syntax-ns#" viewBox="0 0 186.23432 64.7037" ><title>wiremock-captain</title><metadata><rdf:RDF><cc:Work rdf:about="" ><dc:format>image/svg+xml</dc:format><dc:type rdf:resource="http://purl.org/dc/dcmitype/StillImage" /><dc:title>wiremock-captain</dc:title><cc:license rdf:resource="https://opensource.org/licenses/MIT" /><dc:creator><cc:Agent><dc:title>https://github.com/octogonz</dc:title></cc:Agent></dc:creator><dc:rights><cc:Agent><dc:title/></cc:Agent></dc:rights><dc:description></dc:description></cc:Work></rdf:RDF></metadata><defs><style>.a{fill:#435989;}</style></defs><path class="a" d="M117.11035,304.835a12.24261,12.24261,0,0,1-5.30908.98438,8.94847,8.94847,0,0,1-6.7207-2.5127,9.18166,9.18166,0,0,1-2.44776-6.69434,9.81123,9.81123,0,0,1,2.752-7.22558,9.62422,9.62422,0,0,1,7.1416-2.77149,13.34334,13.34334,0,0,1,4.584.68653v4.02734a8.12618,8.12618,0,0,0-4.24756-1.11426,5.6363,5.6363,0,0,0-4.22119,1.64454,6.10327,6.10327,0,0,0-1.606,4.45507,5.98726,5.98726,0,0,0,1.51514,4.293,5.35487,5.35487,0,0,0,4.0791,1.59863,8.69356,8.69356,0,0,0,4.48047-1.1914Z" transform="translate(-43.36919 -248.05997)" /><path class="a" d="M130.979,305.49512h-3.87158V303.5918h-.05176a4.323,4.323,0,0,1-3.9497,2.22754,4.13125,4.13125,0,0,1-3.03662-1.09473,3.92037,3.92037,0,0,1-1.10694-2.91992q0-3.85841,4.5708-4.4541l3.6001-.4795q0-2.17528-2.35693-2.17578a8.0422,8.0422,0,0,0-4.50635,1.41211v-3.082a10.11962,10.11962,0,0,1,2.3374-.77734,12.27574,12.27574,0,0,1,2.7002-.33692q5.67114,0,5.67138,5.65918Zm-3.8457-5.38672v-.89356l-2.40869.31055q-1.99438.25928-1.99414,1.80078a1.48709,1.48709,0,0,0,.48584,1.14551,1.865,1.865,0,0,0,1.314.44629,2.42529,2.42529,0,0,0,1.87793-.7959A2.87725,2.87725,0,0,0,127.1333,300.1084Z" transform="translate(-43.36919 -248.05997)" /><path class="a" d="M138.36035,303.9541h-.05176v7.63965h-4.09228v-19.3584h4.09228v1.99414h.05176a5.20676,5.20676,0,0,1,8.24219-.55078,7.52883,7.52883,0,0,1,1.40527,4.81152,8.15121,8.15121,0,0,1-1.63867,5.32129,5.33882,5.33882,0,0,1-4.35742,2.00782A4.128,4.128,0,0,1,138.36035,303.9541Zm-.1167-5.43848v1.06153a3.37352,3.37352,0,0,0,.7251,2.24023,2.35929,2.35929,0,0,0,1.90381.86817,2.51152,2.51152,0,0,0,2.16894-1.08106,5.22489,5.22489,0,0,0,.77051-3.0625q0-3.49658-2.71972-3.49707a2.55258,2.55258,0,0,0-2.05225.95215A3.7983,3.7983,0,0,0,138.24365,298.51562Z" transform="translate(-43.36919 -248.05997)" /><path class="a" d="M158.67773,305.33984a6.0482,6.0482,0,0,1-2.73242.4795q-4.32422,0-4.32519-4.49317v-6.07324H149.4707v-3.01758h2.14942v-2.8623l4.0791-1.165v4.02734h2.97851v3.01758h-2.97851v5.36035q0,2.07276,1.64453,2.07227a2.76572,2.76572,0,0,0,1.334-.376Z" transform="translate(-43.36919 -248.05997)" /><path class="a" d="M172.01562,305.49512h-3.87207V303.5918h-.05175a4.32126,4.32126,0,0,1-3.94922,2.22754,4.12928,4.12928,0,0,1-3.03613-1.09473,3.92068,3.92068,0,0,1-1.10743-2.91992q0-3.85841,4.57129-4.4541l3.59961-.4795q0-2.17528-2.35644-2.17578a8.04372,8.04372,0,0,0-4.50684,1.41211v-3.082a10.12467,10.12467,0,0,1,2.33789-.77734,12.271,12.271,0,0,1,2.69922-.33692q5.67188,0,5.67187,5.65918Zm-3.8457-5.38672v-.89356l-2.4082.31055q-1.99512.25928-1.99414,1.80078a1.485,1.485,0,0,0,.48535,1.14551,1.86467,1.86467,0,0,0,1.31445.44629,2.424,2.424,0,0,0,1.877-.7959A2.87762,2.87762,0,0,0,168.16992,300.1084Z" transform="translate(-43.36919 -248.05997)" /><path class="a" d="M177.3252,290.1377a2.39007,2.39007,0,0,1-1.69629-.61524,1.98148,1.98148,0,0,1-.66016-1.50879,1.91145,1.91145,0,0,1,.66016-1.50195,2.76915,2.76915,0,0,1,3.39941,0,1.92226,1.92226,0,0,1,.6543,1.50195,1.976,1.976,0,0,1-.6543,1.52832A2.4308,2.4308,0,0,1,177.3252,290.1377Zm2.0205,15.35742h-4.09179V292.23535h4.09179Z" transform="translate(-43.36919 -248.05997)" /><path class="a" d="M195.59668,305.49512h-4.0791V298.127q0-3.082-2.20117-3.082a2.18348,2.18348,0,0,0-1.748.81641,3.105,3.105,0,0,0-.68652,2.07129v7.5625H182.79V292.23535h4.0918V294.333h.05175a4.68928,4.68928,0,0,1,4.25977-2.42188q4.40332,0,4.40332,5.46485Z" transform="translate(-43.36919 -248.05997)" /><path class="a" d="M127.60156,261.23682l-4.90771,18.56933h-4.63574l-3.082-11.91357a9.90256,9.90256,0,0,1-.29785-2.08447h-.05176a12.61839,12.61839,0,0,1-.33691,2.08447l-3.15967,11.91357H106.2998L101.418,261.23682h4.57129l2.61572,12.3667a14.73584,14.73584,0,0,1,.24609,2.12353h.07764a10.25781,10.25781,0,0,1,.37549-2.17529l3.3667-12.31494h4.48047l3.04345,12.47021a15.365,15.365,0,0,1,.29786,1.99414h.05175a13.30392,13.30392,0,0,1,.272-2.07178l2.564-12.39257Z" transform="translate(-43.36919 -248.05997)" /><path class="a" d="M131.62842,264.44824a2.3901,2.3901,0,0,1-1.69629-.61523,1.98142,1.98142,0,0,1-.66016-1.5083,1.91331,1.91331,0,0,1,.66016-1.50244,2.771,2.771,0,0,1,3.39941,0,1.92215,1.92215,0,0,1,.65381,1.50244,1.97459,1.97459,0,0,1-.65381,1.52783A2.43,2.43,0,0,1,131.62842,264.44824Zm2.02051,15.35791h-4.09229V266.5459h4.09229Z" transform="translate(-43.36919 -248.05997)" /><path class="a" d="M145.74414,270.23682a3.55356,3.55356,0,0,0-1.72314-.40186,2.48033,2.48033,0,0,0-2.08448.978,4.26415,4.26415,0,0,0-.751,2.66113v6.332h-4.09229V266.5459h4.09229v2.46045h.05175a3.53969,3.53969,0,0,1,3.4961-2.69336,2.64256,2.64256,0,0,1,1.01074.15527Z" transform="translate(-43.36919 -248.05997)" /><path class="a" d="M159.56055,274.34131h-8.65039q.208,2.88793,3.63867,2.88769a7.09687,7.09687,0,0,0,3.8457-1.03564v2.95215a10.0958,10.0958,0,0,1-4.77734.98437,6.17255,6.17255,0,0,1-6.75977-6.74658,7.097,7.097,0,0,1,1.916-5.23144,6.38868,6.38868,0,0,1,4.71484-1.92969,5.792,5.792,0,0,1,4.48633,1.72265,6.635,6.635,0,0,1,1.58594,4.67432Zm-3.793-2.51172q0-2.84911-2.30664-2.84912a2.201,2.201,0,0,0-1.70215.81592,3.7,3.7,0,0,0-.874,2.0332Z" transform="translate(-43.36919 -248.05997)" /><path class="a" d="M183.55664,279.80615h-4.13086V268.6958q0-1.80029.15527-3.97559h-.10351a19.5019,19.5019,0,0,1-.583,2.46045L174.544,279.80615H171.125l-4.42871-12.49609a24.182,24.182,0,0,1-.583-2.58985h-.11621q.16846,2.74512.168,4.81739v10.26855h-3.76758V261.23682h6.125l3.79395,11.00683a15.50269,15.50269,0,0,1,.66015,2.65479h.07813a26.35094,26.35094,0,0,1,.73828-2.68067l3.79394-10.98095h5.96973Z" transform="translate(-43.36919 -248.05997)" /><path class="a" d="M193.69531,280.12988a7.12683,7.12683,0,0,1-5.21289-1.8584,7.68572,7.68572,0,0,1,.07129-10.19091,7.43915,7.43915,0,0,1,5.32227-1.8584,7.04288,7.04288,0,0,1,5.17968,1.8584,6.60462,6.60462,0,0,1,1.87793,4.91406,7.013,7.013,0,0,1-1.93554,5.21875A7.20774,7.20774,0,0,1,193.69531,280.12988Zm.10352-10.77392a2.73,2.73,0,0,0-2.25391.99707,4.39875,4.39875,0,0,0-.80273,2.82324q0,3.81959,3.082,3.81982,2.93994,0,2.93945-3.92334Q196.76367,269.35572,193.79883,269.356Z" transform="translate(-43.36919 -248.05997)" /><path class="a" d="M213.63672,279.32715a8.0901,8.0901,0,0,1-4.001.80273,6.766,6.766,0,0,1-4.94629-1.85156A6.39392,6.39392,0,0,1,202.79883,273.5a7.04291,7.04291,0,0,1,2.02637-5.32861,7.48786,7.48786,0,0,1,5.41894-1.94922,6.95673,6.95673,0,0,1,3.39258.62158v3.4707a4.66534,4.66534,0,0,0-2.86133-.95849,3.77185,3.77185,0,0,0-2.791,1.02978,3.84373,3.84373,0,0,0-1.0293,2.84229,3.77837,3.77837,0,0,0,.98437,2.76465,3.61783,3.61783,0,0,0,2.70606,1.00341,5.402,5.402,0,0,0,2.99121-.958Z" transform="translate(-43.36919 -248.05997)" /><path class="a" d="M229.60352,279.80615h-4.90723l-4.23438-6.57812h-.05175v6.57812h-4.0918V260.1748h4.0918v12.4961h.05175l3.94922-6.125h4.85645l-4.75293,6.229Z" transform="translate(-43.36919 -248.05997)" /><path class="a" d="M95.93359,289.32715a19.46865,19.46865,0,0,0-10.44043,5.4248l-.41845.43457,2.85937.90918c-4.167,3.50489-11.34082,7.00782-15.38672,3.23731-1.00537-1.499-.48095-5.23242-.168-7.46289.04786-.34082.09131-.64844.12256-.90137l3.49445-22.57422,6.523,1.16071a3.09925,3.09925,0,0,0,.3117.57269,3.05976,3.05976,0,0,0,1.98633,1.26953,3.09542,3.09542,0,0,0,.54639.04834,3.08051,3.08051,0,1,0-1.76953-5.60693,3.11409,3.11409,0,0,0-.40473.34576l-6.66742-1.18646.7862-5.0788a6.00841,6.00841,0,1,0-4.77027-.84265l-1.01129,5.03253-6.65881-1.18493a3.09774,3.09774,0,0,0-.261-.46436,3.08026,3.08026,0,1,0-3.06591,4.79541,3.09522,3.09522,0,0,0,.54638.04834,3.05927,3.05927,0,0,0,1.75635-.55469,3.10463,3.10463,0,0,0,.49011-.42981l6.51575,1.15943-4.498,22.38366c-.06006.25879-.126.56348-.19824.89942-.47559,2.20215-1.27148,5.88672-2.65771,6.90527-5.1709,2.18653-10.69776-3.57812-13.39991-8.30469l2.99756.13282-.24267-.55176a19.48583,19.48583,0,0,0-7.92823-8.69482l-.42724-.27149-.13526.48779a21.18188,21.18188,0,0,0-.31006,11.68946l.16749.60547,2.36865-2.26563c2.94531,8.91406,7.99023,12.28613,12.06054,15.00781,2.87745,1.92383,5.36329,3.58594,6.57959,6.69141l.22315.57031.40674-.458c2.21289-2.49511,5.11914-3.19726,8.48437-4.01074,4.75928-1.15039,10.65772-2.57617,16.49707-9.92578l1.44287,2.94238.36524-.50879a21.17936,21.17936,0,0,0,3.74121-11.0791l.0415-.5039ZM73.07227,253.58008a2.86435,2.86435,0,1,1,2.31835,3.32178A2.867,2.867,0,0,1,73.07227,253.58008Z" transform="translate(-43.36919 -248.05997)" /></svg>